<?xml version="1.0" standalone="no"?>
<!DOCTYPE svg PUBLIC "-//W3C//DTD SVG 20010904//EN"
 "http://www.w3.org/TR/2001/REC-SVG-20010904/DTD/svg10.dtd">
<svg version="1.0" xmlns="http://www.w3.org/2000/svg"
 width="800.000000pt" height="800.000000pt" viewBox="0 0 800.000000 800.000000"
 preserveAspectRatio="xMidYMid meet">
<metadata>
Created by potrace 1.15, written by Peter Selinger 2001-2017
</metadata>
<g transform="translate(0.000000,800.000000) scale(0.100000,-0.100000)"
fill="#000000" stroke="none">
<path d="M488 7960 c3 -28 0 -40 -8 -40 -9 0 -8 -6 3 -18 20 -22 22 -68 5 -76
-10 -5 -10 -7 -1 -12 19 -8 28 -74 13 -84 -11 -7 -10 -11 3 -24 8 -9 18 -29
22 -45 7 -34 66 -91 95 -91 43 0 111 84 117 145 1 17 5 57 8 90 3 33 6 78 8
100 2 22 6 47 10 55 9 19 -10 50 -20 34 -5 -7 -59 -23 -120 -36 -105 -23 -113
-24 -113 -7 0 9 -3 24 -6 33 -11 29 -20 16 -16 -24z"/>
<path d="M1079 7913 c-147 -137 -189 -179 -189 -192 0 -23 122 -141 145 -141
16 0 76 58 208 200 103 110 187 205 187 210 0 18 -15 10 -35 -18 -31 -44 -348
-382 -358 -382 -17 0 -127 114 -127 132 0 27 9 23 57 -24 24 -23 43 -38 43
-33 0 6 -18 27 -41 49 -30 27 -38 41 -30 49 8 8 20 3 43 -19 l33 -29 -28 31
-28 31 63 60 c35 32 88 82 118 111 30 28 50 52 44 52 -6 0 -53 -39 -105 -87z"/>
<path d="M1770 7935 l0 -65 35 0 c41 0 41 1 20 -107 -11 -59 -15 -154 -15
-385 l0 -308 35 0 35 0 0 293 c0 210 5 317 15 382 17 103 20 255 5 255 -6 0
-10 -31 -10 -73 0 -59 -3 -74 -15 -74 -12 0 -15 15 -15 74 0 42 -4 73 -10 73
-5 0 -10 -25 -10 -55 0 -54 0 -55 -30 -55 -38 0 -39 17 -2 23 l27 4 -27 2
c-32 1 -39 21 -8 21 11 0 20 5 20 10 0 6 -9 10 -20 10 -28 0 -25 20 3 21 21 0
21 1 2 9 -34 14 -35 12 -35 -55z m90 -550 c0 -229 -2 -265 -15 -265 -13 0 -15
36 -15 265 0 229 2 265 15 265 13 0 15 -36 15 -265z"/>
<path d="M2825 7964 c25 -61 56 -96 109 -120 89 -41 206 -25 261 36 17 18 18
18 50 -14 71 -71 163 -47 216 56 25 49 25 78 -1 78 -17 0 -18 -3 -9 -18 15
-25 -16 -105 -32 -82 -9 12 -10 12 -5 -3 6 -19 -44 -57 -77 -57 -29 0 -78 30
-71 42 4 6 3 9 -2 6 -11 -7 -29 12 -29 30 0 19 18 16 26 -5 5 -12 7 -8 6 14
-1 17 -5 29 -9 26 -11 -6 -10 5 2 28 8 15 7 19 -5 19 -8 0 -15 -8 -15 -17 0
-10 -9 -33 -21 -52 l-20 -34 -57 54 -57 54 53 -56 c29 -30 49 -58 45 -62 -4
-4 -33 21 -66 55 -33 35 -53 54 -46 43 7 -11 33 -41 58 -67 l45 -47 -49 -22
c-107 -47 -225 -6 -275 98 -28 59 -48 72 -25 17z"/>
<path d="M4488 7960 c3 -28 0 -40 -8 -40 -9 0 -8 -6 3 -18 20 -22 22 -68 5
-76 -10 -5 -10 -7 -1 -12 19 -8 28 -74 13 -84 -11 -7 -10 -11 3 -24 8 -9 18
-29 22 -45 7 -34 66 -91 95 -91 43 0 111 84 117 145 1 17 5 57 8 90 3 33 6 78
8 100 2 22 6 47 10 55 9 19 -10 50 -20 34 -5 -7 -59 -23 -120 -36 -105 -23
-113 -24 -113 -7 0 9 -3 24 -6 33 -11 29 -20 16 -16 -24z"/>
<path d="M5079 7913 c-147 -137 -189 -179 -189 -192 0 -23 122 -141 145 -141
16 0 76 58 208 200 103 110 187 206 187 213 -1 6 -18 -7 -38 -29 -125 -140
-347 -374 -355 -374 -17 0 -127 113 -127 132 0 27 9 23 57 -24 24 -23 43 -38
43 -33 0 6 -18 27 -41 49 -30 27 -38 41 -30 49 8 8 20 3 43 -19 l33 -29 -28
31 -28 31 63 60 c35 32 88 82 118 111 30 28 50 52 44 52 -6 0 -53 -39 -105
-87z"/>
<path d="M5770 7935 l0 -65 35 0 c41 0 41 1 20 -107 -11 -59 -15 -154 -15
-385 l0 -308 35 0 35 0 0 298 c0 215 4 319 15 377 17 93 20 255 5 255 -6 0
-10 -32 -10 -75 0 -62 -2 -73 -15 -69 -11 5 -15 23 -15 75 0 39 -4 69 -10 69
-5 0 -10 -25 -10 -55 0 -54 0 -55 -30 -55 -38 0 -39 17 -2 23 l27 4 -27 2
c-32 1 -39 21 -8 21 11 0 20 5 20 10 0 6 -9 10 -20 10 -28 0 -25 20 3 21 21 0
21 1 2 9 -34 14 -35 12 -35 -55z m90 -550 c0 -229 -2 -265 -15 -265 -13 0 -15
36 -15 265 0 229 2 265 15 265 13 0 15 -36 15 -265z"/>
<path d="M6825 7964 c25 -61 56 -96 109 -120 89 -41 206 -25 261 36 17 18 18
18 50 -14 71 -71 163 -47 216 56 25 49 25 78 -1 78 -17 0 -18 -3 -9 -18 15
-25 -16 -105 -32 -82 -9 12 -10 12 -5 -3 6 -19 -44 -57 -77 -57 -29 0 -78 30
-71 42 5 7 2 8 -6 3 -10 -6 -12 -4 -7 8 4 11 2 14 -8 11 -12 -5 -13 0 -6 35 1
2 9 -3 19 -10 15 -13 16 -12 3 4 -11 14 -11 23 -3 42 10 21 9 25 -3 25 -8 0
-15 -8 -15 -17 0 -10 -9 -33 -21 -52 l-20 -34 -57 54 -57 54 53 -56 c29 -30
49 -58 45 -62 -4 -4 -33 21 -66 55 -33 35 -53 54 -46 43 7 -11 33 -41 58 -67
l45 -47 -49 -22 c-39 -17 -61 -20 -108 -16 -80 7 -133 44 -167 114 -28 59 -48
72 -25 17z"/>
<path d="M2276 7943 c-11 -26 15 -39 106 -51 l83 -12 87 -87 c48 -48 88 -94
90 -103 4 -25 568 -600 587 -600 19 0 85 65 94 92 4 13 -40 59 -176 181 -100
90 -238 214 -306 275 -68 62 -131 112 -140 112 -9 0 -61 42 -117 94 l-101 93
-77 12 c-103 15 -123 14 -130 -6z m723 -471 c154 -140 288 -261 297 -269 14
-15 12 -20 -25 -57 -46 -45 -70 -42 -26 4 36 37 21 40 -17 3 -30 -29 -40 -13
-11 19 9 10 12 18 7 18 -5 0 -15 -10 -23 -21 -12 -21 -20 -15 -188 152 -96 96
-215 218 -265 272 -89 96 -90 98 -72 118 10 11 23 18 30 17 6 -2 138 -117 293
-256z"/>
<path d="M6276 7943 c-11 -26 15 -39 106 -51 l83 -12 87 -87 c49 -48 88 -94
88 -101 0 -20 570 -602 590 -602 18 0 84 65 93 92 4 13 -40 59 -176 181 -100
90 -238 214 -306 275 -68 62 -131 112 -140 112 -9 0 -61 42 -117 94 l-101 93
-77 12 c-103 15 -123 14 -130 -6z m723 -471 c154 -140 288 -261 297 -269 14
-15 12 -20 -25 -57 -46 -45 -70 -42 -26 4 36 37 21 40 -17 3 -21 -20 -28 -23
-28 -11 0 9 7 21 15 28 9 7 13 15 10 18 -2 3 -13 -5 -22 -17 l-18 -22 -235
238 c-320 325 -297 298 -275 323 10 11 24 19 31 18 6 -2 138 -117 293 -256z"/>
<path d="M15 7930 c-10 -11 -15 -23 -11 -27 4 -5 12 0 17 10 9 15 27 17 139
17 l130 0 0 -381 c0 -338 -2 -380 -15 -369 -13 11 -15 65 -15 371 l0 359 -104
0 c-124 0 -140 -9 -113 -66 17 -34 24 -114 10 -114 -4 0 -17 10 -30 22 -19 17
-23 19 -23 5 0 -8 14 -26 31 -38 26 -18 33 -19 40 -8 13 21 11 96 -5 134 -8
18 -12 36 -8 39 3 3 45 6 94 6 l88 0 0 -337 c0 -323 -1 -335 -18 -320 -13 12
-40 17 -100 18 -45 1 -85 5 -88 10 -3 5 1 9 8 9 8 0 23 6 33 14 16 12 17 16 6
30 -15 17 -81 22 -81 6 0 -5 16 -10 36 -10 21 0 33 -4 29 -10 -3 -5 -15 -10
-26 -10 -14 0 -19 -7 -19 -25 0 -24 2 -25 78 -26 42 -1 80 -1 84 0 10 1 242
-238 246 -253 2 -7 -11 -26 -29 -40 l-32 -27 -111 110 -111 111 -73 0 c-41 0
-72 -4 -72 -10 0 -5 7 -10 15 -10 12 0 15 -16 15 -85 0 -69 -3 -85 -15 -85 -8
0 -15 -4 -15 -10 0 -5 23 -10 51 -10 36 0 49 -4 47 -12 -3 -8 -22 -13 -46 -14
-23 0 -45 -4 -49 -8 -4 -4 19 -6 52 -4 56 3 60 4 60 28 0 21 -5 26 -32 28
l-33 3 0 85 0 84 44 0 c43 0 48 -3 154 -110 61 -60 113 -110 116 -110 14 0 86
74 86 89 0 9 -31 48 -70 86 l-70 69 -2 401 -3 400 -136 3 c-125 2 -137 1 -154
-18z"/>
<path d="M3830 7940 c-12 -8 3 -28 80 -105 118 -120 149 -143 161 -124 13 21
11 96 -5 134 -8 18 -12 36 -8 39 3 3 45 6 94 6 l88 0 0 -337 c0 -321 -1 -335
-18 -320 -12 11 -41 17 -100 18 -46 2 -85 6 -88 11 -3 4 4 8 14 8 29 0 48 26
32 45 -10 12 -38 15 -136 15 l-124 0 0 -25 c0 -17 7 -28 23 -34 20 -8 21 -10
4 -16 -15 -6 -50 23 -176 149 -86 86 -163 156 -172 156 -22 0 -79 -62 -79 -87
0 -30 331 -351 367 -355 27 -3 27 -4 28 -83 l0 -80 -32 -3 c-33 -3 -47 -21
-37 -47 5 -13 33 -15 188 -13 l181 3 0 25 c0 21 -5 26 -32 28 l-33 3 0 85 0
84 44 0 c43 0 48 -3 154 -110 61 -60 113 -110 116 -110 14 0 86 74 86 89 0 9
-31 48 -70 86 l-70 69 -2 401 -3 400 -136 3 c-109 2 -138 0 -148 -12 -11 -13
-17 -13 -46 0 -39 16 -123 18 -145 4z m147 -27 c33 -15 36 -15 48 0 10 14 32
17 139 17 l126 0 0 -381 c0 -338 -2 -380 -15 -369 -13 11 -15 65 -15 371 l0
359 -104 0 c-124 0 -140 -9 -113 -66 17 -35 23 -114 9 -114 -4 0 -52 45 -107
100 l-100 100 49 0 c26 0 64 -8 83 -17z m-317 -528 c125 -125 160 -155 182
-155 24 0 28 4 28 30 0 19 -5 30 -14 30 -8 0 -18 5 -21 10 -4 6 37 10 115 10
78 0 119 -4 115 -10 -3 -5 -15 -10 -26 -10 -14 0 -19 -7 -19 -25 0 -24 2 -25
78 -26 42 -1 80 -1 84 0 10 1 242 -238 246 -253 2 -7 -11 -26 -29 -40 l-32
-27 -111 110 -111 111 -190 0 -190 0 -169 169 -169 169 31 31 c17 17 34 31 39
31 4 0 78 -70 163 -155z m370 -350 l0 -85 -102 0 c-64 0 -98 4 -93 9 6 6 30
11 55 14 l45 4 -52 1 c-60 2 -72 21 -15 24 l37 1 -37 4 -38 4 0 55 0 54 100 0
100 0 0 -85z"/>
<path d="M3317 7652 c-15 -15 -27 -37 -27 -47 0 -23 78 -105 100 -105 20 0 80
61 80 81 0 24 -78 99 -103 99 -13 0 -35 -13 -50 -28z"/>
<path d="M7317 7652 c-15 -15 -27 -37 -27 -47 0 -23 78 -105 100 -105 20 0 80
61 80 81 0 22 -82 99 -106 99 -11 0 -32 -13 -47 -28z"/>
<path d="M1315 7603 c-161 -58 -239 -222 -189 -394 28 -96 166 -328 262 -438
l38 -44 66 89 c94 127 172 255 209 343 75 180 14 361 -146 432 -68 30 -174 35
-240 12z m237 -22 c64 -27 123 -90 149 -159 44 -117 15 -237 -101 -427 -49
-81 -169 -245 -179 -245 -3 0 -44 54 -91 120 -197 277 -244 423 -182 562 66
151 246 217 404 149z"/>
<path d="M1335 7555 c-101 -38 -165 -130 -165 -238 0 -77 18 -123 68 -179 50
-56 102 -78 182 -78 273 0 358 357 115 482 -51 27 -147 33 -200 13z m216 -42
c24 -16 43 -35 41 -42 -1 -7 2 -10 8 -6 18 11 60 -95 60 -153 0 -47 -30 -142
-46 -142 -3 0 -2 5 2 12 4 7 3 8 -5 4 -6 -4 -9 -12 -5 -17 7 -13 -30 -44 -86
-71 -58 -28 -156 -31 -175 -5 -13 19 -30 24 -19 6 4 -7 -7 -4 -25 7 -34 20
-35 22 -21 44 8 12 10 12 10 1 0 -8 2 -12 5 -9 3 3 1 16 -4 29 -8 20 -10 21
-10 5 -1 -18 -2 -18 -21 -1 -18 16 -20 16 -20 2 0 -10 5 -16 11 -14 6 1 14 -5
17 -13 4 -12 2 -12 -18 1 -64 43 -86 183 -41 269 27 52 59 83 116 111 62 31
167 22 226 -18z"/>
<path d="M1289 7498 c0 -7 -2 -22 -5 -33 -2 -11 -6 -35 -10 -53 -4 -20 0 -49
9 -75 9 -23 19 -64 23 -92 9 -68 41 -142 65 -148 10 -3 17 -2 15 1 -2 4 6 29
18 56 l22 50 16 -50 c18 -56 42 -68 59 -30 7 14 15 24 18 22 3 -2 7 6 7 17 3
41 25 150 34 168 6 10 12 44 13 76 2 32 2 53 0 46 -2 -6 -14 -1 -29 14 -22 21
-31 24 -67 19 -59 -9 -67 -8 -114 2 -23 5 -40 6 -38 2 3 -5 -2 -11 -11 -14
-22 -9 -23 -8 -17 14 3 11 3 20 -1 20 -3 0 -6 -6 -7 -12z m131 -38 c8 0 35 2
59 3 37 2 47 -2 64 -26 19 -25 20 -31 9 -70 -7 -23 -20 -75 -28 -116 -9 -41
-23 -89 -31 -105 l-16 -31 -14 35 c-32 83 -44 86 -72 18 l-22 -53 -15 28 c-15
28 -51 170 -61 240 -3 25 0 45 12 63 15 23 21 25 58 20 23 -3 49 -6 57 -6z"/>
<path d="M5323 7606 c-165 -54 -248 -221 -197 -397 28 -96 166 -328 262 -438
l38 -44 66 89 c94 127 172 255 209 343 75 180 14 361 -146 432 -62 27 -172 35
-232 15z m229 -25 c64 -27 123 -90 149 -159 44 -117 15 -237 -101 -427 -49
-81 -169 -245 -179 -245 -3 0 -44 54 -91 120 -197 278 -244 423 -181 565 65
148 246 214 403 146z"/>
<path d="M5335 7555 c-178 -66 -224 -303 -84 -429 52 -48 100 -66 173 -66 269
1 352 358 111 482 -51 27 -147 33 -200 13z m185 -26 c54 -24 82 -48 73 -62 -3
-6 -1 -7 6 -3 7 5 20 -11 36 -46 57 -122 14 -254 -103 -315 -67 -35 -192 -40
-192 -7 0 10 6 11 25 4 14 -5 24 -6 22 -2 -1 4 7 29 17 57 l19 50 13 -35 c17
-49 17 -60 -3 -60 -15 0 -16 -2 -3 -10 8 -5 16 -5 18 -1 2 5 12 7 22 4 14 -4
23 2 31 21 7 14 15 24 18 22 3 -2 7 6 7 17 3 41 25 150 34 168 6 10 12 44 13
76 2 32 2 53 0 46 -2 -6 -14 -1 -29 14 -22 21 -31 24 -67 19 -59 -9 -67 -8
-114 2 -23 5 -40 5 -37 1 3 -5 3 -9 0 -9 -2 0 -11 -3 -19 -6 -12 -4 -14 0 -11
18 2 13 1 16 -2 8 -4 -8 -13 -19 -20 -23 -8 -4 -14 -13 -14 -20 0 -7 4 -6 10
3 15 24 20 6 8 -28 -10 -25 -10 -41 0 -74 7 -24 21 -81 31 -128 11 -47 22 -93
26 -102 4 -11 3 -18 -5 -18 -6 0 -8 -5 -4 -11 4 -7 -7 -3 -25 7 -21 12 -29 23
-25 34 3 8 7 22 9 30 1 9 0 10 -2 2 -4 -11 -9 -10 -24 4 -17 16 -19 16 -19 1
0 -10 5 -16 11 -14 6 1 14 -5 17 -13 4 -12 2 -12 -18 1 -64 43 -86 183 -41
269 59 114 195 162 311 109z m-100 -69 c8 0 35 2 59 3 37 2 47 -2 64 -26 19
-24 20 -31 9 -70 -7 -23 -19 -76 -28 -117 -9 -41 -23 -88 -32 -105 l-15 -30
-14 35 c-32 83 -44 86 -72 18 l-22 -53 -15 28 c-15 28 -51 170 -61 240 -3 25
0 45 12 63 15 23 21 25 58 20 23 -3 49 -6 57 -6z"/>
<path d="M7451 7526 c-26 -27 -32 -40 -27 -59 9 -37 330 -345 364 -349 26 -3
27 -4 27 -73 1 -89 -1 -95 -35 -95 -29 0 -43 -19 -34 -45 5 -12 29 -15 133
-14 146 2 142 7 -8 11 -73 2 -106 7 -109 16 -3 9 25 12 117 12 74 0 121 4 121
10 0 6 -36 10 -87 10 -91 0 -107 15 -23 23 l45 4 -52 1 c-61 2 -71 19 -15 25
l37 4 -37 1 -38 2 0 55 0 55 85 0 c50 0 85 4 85 10 0 6 -46 10 -118 10 l-117
0 -169 169 -169 169 31 31 c17 17 34 31 39 31 4 0 78 -70 163 -155 125 -125
160 -155 182 -155 24 0 28 4 28 29 0 21 -6 31 -22 37 -16 5 4 9 65 11 115 5
113 23 -3 23 -90 0 -90 0 -90 -25 0 -14 7 -28 15 -31 8 -4 15 -10 15 -15 0
-27 -42 6 -180 146 -85 85 -162 155 -170 155 -9 0 -31 -15 -49 -34z"/>
<path d="M2382 7452 c-79 -2 -104 -6 -109 -17 -4 -12 -27 -15 -109 -15 l-104
0 0 -434 c0 -386 2 -435 16 -440 9 -3 163 -6 344 -6 265 0 330 3 339 14 8 9
10 133 9 437 l-3 424 -100 3 c-64 2 -105 7 -115 16 -21 18 -49 21 -168 18z
m153 -32 c3 -11 3 -29 0 -40 -6 -19 -13 -20 -122 -18 -82 2 -118 7 -121 16 -2
8 9 13 35 14 l38 1 -40 6 -40 5 55 6 55 7 -52 1 c-29 1 -53 7 -53 12 0 6 46
10 119 10 111 0 120 -1 126 -20z m-275 -31 c13 -9 13 -10 0 -8 -8 1 -43 1 -77
0 -100 -2 -94 25 -93 -410 1 -375 1 -377 22 -378 12 -1 25 -8 29 -15 7 -11 9
-11 9 0 0 10 57 12 284 10 156 -2 282 0 280 4 -2 3 2 8 8 10 10 4 13 87 13
376 0 434 8 405 -104 403 -44 -1 -71 3 -71 9 0 7 35 10 95 9 52 -1 95 -6 95
-11 0 -5 -6 -6 -12 -2 -10 6 -10 4 0 -7 15 -16 17 -785 2 -809 -8 -13 -13 -13
-31 -2 -11 8 -18 9 -15 3 4 -6 -98 -10 -303 -10 l-310 0 -1 419 0 420 82 0
c46 0 90 -5 98 -11z m445 -404 l0 -370 -289 -3 c-225 -2 -291 1 -298 10 -11
19 -10 712 2 724 6 6 124 9 297 9 l288 0 0 -370z"/>
<path d="M2289 7264 c-9 -11 -9 -18 1 -29 11 -13 42 -15 199 -13 181 3 186 4
189 24 4 30 -32 35 -222 33 -120 -1 -158 -4 -167 -15z"/>
<path d="M2293 7139 c-6 -6 -9 -18 -6 -25 4 -11 44 -14 199 -14 184 0 194 1
194 19 0 10 -7 22 -16 25 -29 11 -359 7 -371 -5z"/>
<path d="M2287 6997 c-13 -34 6 -37 199 -35 181 3 189 4 189 23 0 19 -8 20
-191 23 -154 2 -193 0 -197 -11z"/>
<path d="M2287 6867 c-13 -34 6 -37 199 -35 181 3 189 4 189 23 0 19 -8 20
-191 23 -154 2 -193 0 -197 -11z"/>
<path d="M2285 6740 c-4 -6 -1 -18 6 -26 10 -12 44 -14 198 -12 184 3 186 3
189 26 l3 22 -195 0 c-124 0 -197 -4 -201 -10z"/>
<path d="M6382 7452 c-79 -2 -104 -6 -109 -17 -4 -12 -27 -15 -109 -15 l-104
0 0 -434 c0 -386 2 -435 16 -440 9 -3 163 -6 344 -6 265 0 330 3 339 14 8 9
10 133 9 437 l-3 424 -100 3 c-64 2 -105 7 -115 16 -21 18 -49 21 -168 18z
m153 -32 c3 -11 3 -29 0 -40 -6 -19 -13 -20 -122 -18 -82 2 -118 7 -121 16 -2
8 9 13 35 14 l38 1 -40 6 -40 5 55 6 55 7 -52 1 c-29 1 -53 7 -53 12 0 6 46
10 119 10 111 0 120 -1 126 -20z m-275 -31 c13 -9 13 -10 0 -8 -8 1 -43 1 -77
0 -100 -2 -94 24 -93 -403 1 -245 5 -374 12 -382 7 -8 90 -10 282 -9 149 2
282 3 296 3 55 1 53 -11 52 382 -1 199 -2 371 -2 380 0 22 -32 31 -107 29 -39
-1 -63 2 -63 9 0 7 34 10 95 9 l95 -1 0 -414 c0 -258 -4 -415 -10 -419 -5 -3
-19 -1 -31 6 -13 7 -19 7 -15 1 4 -8 -82 -11 -273 -12 -217 0 -280 2 -285 12
-5 10 -7 10 -12 1 -3 -7 -14 -13 -25 -13 -18 0 -19 13 -19 420 l0 420 83 0
c45 0 89 -5 97 -11z m445 -404 l0 -370 -289 -3 c-225 -2 -291 1 -298 10 -11
19 -10 712 2 724 6 6 124 9 297 9 l288 0 0 -370z"/>
<path d="M6295 7266 c-16 -12 -17 -16 -6 -30 12 -14 38 -16 200 -14 181 3 186
4 189 24 4 29 -26 34 -212 34 -114 0 -157 -3 -171 -14z"/>
<path d="M6293 7139 c-6 -6 -9 -18 -6 -25 4 -11 44 -14 199 -14 184 0 194 1
194 19 0 10 -7 22 -16 25 -29 11 -359 7 -371 -5z"/>
<path d="M6287 6997 c-13 -34 6 -37 199 -35 181 3 189 4 189 23 0 19 -8 20
-191 23 -154 2 -193 0 -197 -11z"/>
<path d="M6287 6867 c-13 -34 6 -37 199 -35 181 3 189 4 189 23 0 19 -8 20
-191 23 -154 2 -193 0 -197 -11z"/>
<path d="M6285 6740 c-4 -6 -1 -18 6 -26 10 -12 44 -14 198 -12 184 3 186 3
189 26 l3 22 -195 0 c-124 0 -197 -4 -201 -10z"/>
<path d="M654 7226 c-74 -33 -96 -108 -44 -156 40 -37 95 -49 220 -47 58 0 81
2 53 4 l-53 4 0 100 0 99 65 0 c71 0 118 -17 147 -54 37 -45 7 -104 -67 -132
l-40 -15 35 6 c42 6 100 63 100 98 0 33 -25 64 -70 87 -34 17 -59 20 -177 20
-93 -1 -148 -5 -169 -14z m156 -70 c0 -84 6 -77 -82 -91 -21 -3 -38 -10 -38
-16 0 -19 -81 32 -90 57 -13 33 -13 37 6 60 8 10 12 13 8 5 -4 -9 -3 -12 4 -7
6 4 9 13 5 21 -3 8 -4 15 -2 15 2 0 21 6 42 13 21 8 62 15 92 16 l55 2 0 -75z"/>
<path d="M4654 7226 c-74 -33 -96 -108 -44 -156 40 -37 100 -50 222 -48 57 1
79 3 51 5 l-53 4 0 100 0 99 65 0 c71 0 118 -17 147 -54 37 -45 7 -104 -67
-132 l-40 -15 35 6 c42 6 100 63 100 98 0 33 -25 64 -70 87 -34 17 -59 20
-177 20 -93 -1 -148 -5 -169 -14z m156 -71 c0 -83 6 -76 -82 -90 -21 -3 -38
-10 -38 -15 0 -18 -81 32 -91 57 -11 30 -3 66 13 57 6 -4 8 -3 5 2 -18 29 55
63 136 64 l57 0 0 -75z"/>
<path d="M3056 6870 c-42 -13 -93 -67 -112 -117 -23 -60 -15 -169 19 -248 14
-33 35 -114 47 -180 27 -151 44 -213 82 -297 47 -103 74 -102 114 5 14 40 37
96 50 126 22 48 26 53 39 40 8 -8 33 -61 54 -118 57 -151 79 -164 124 -74 36
70 65 171 89 307 11 67 33 153 49 191 38 96 45 159 25 228 -31 105 -111 157
-221 142 -27 -3 -67 -16 -87 -28 l-38 -21 -48 23 c-52 26 -141 36 -186 21z
m178 -34 c52 -25 61 -24 126 9 42 22 132 19 181 -6 31 -15 46 -33 65 -72 32
-69 31 -141 -2 -232 -26 -71 -37 -108 -48 -157 -5 -24 -11 -28 -40 -28 -18 0
-38 6 -44 13 -5 6 -20 73 -32 147 -12 74 -24 143 -26 153 -5 15 -20 17 -130
17 -68 0 -124 -3 -124 -6 0 -18 -52 -309 -56 -316 -3 -4 -23 -8 -44 -8 -37 0
-38 1 -45 43 -4 23 -20 74 -36 114 -49 123 -48 215 3 286 51 71 157 89 252 43z
m166 -178 c3 -44 51 -303 58 -310 5 -5 28 -12 50 -15 40 -5 41 -7 35 -37 -23
-129 -67 -270 -97 -311 -23 -32 -42 -9 -80 97 -20 56 -46 114 -57 128 l-19 25
-25 -30 c-14 -16 -32 -52 -41 -80 -29 -88 -63 -155 -77 -155 -20 0 -64 102
-93 216 -33 134 -33 140 16 148 22 3 43 14 49 24 5 9 19 81 32 160 l22 142
114 0 c62 0 113 -1 113 -2z"/>
<path d="M7056 6870 c-42 -13 -93 -67 -112 -117 -23 -60 -15 -169 19 -248 14
-33 35 -114 47 -180 27 -151 44 -213 82 -297 48 -106 74 -102 118 15 17 45 39
102 51 125 24 53 37 47 68 -33 12 -30 30 -80 42 -110 36 -92 62 -97 102 -18
36 70 65 171 88 307 12 67 34 153 50 193 38 97 45 157 25 226 -31 105 -111
157 -221 142 -27 -3 -67 -16 -87 -28 l-38 -21 -48 23 c-52 26 -141 36 -186 21z
m178 -34 c52 -25 61 -24 126 9 42 22 132 19 181 -6 31 -15 46 -33 65 -72 32
-69 31 -141 -2 -232 -26 -71 -37 -108 -48 -157 -5 -24 -11 -28 -40 -28 -18 0
-38 6 -44 13 -5 6 -20 73 -32 147 -12 74 -24 143 -26 153 -5 15 -20 17 -130
17 -68 0 -124 -3 -124 -6 0 -18 -52 -309 -56 -316 -3 -4 -23 -8 -44 -8 -37 0
-38 1 -45 43 -4 23 -20 74 -36 114 -49 123 -48 215 3 286 51 71 157 89 252 43z
m166 -178 c3 -44 51 -303 58 -310 5 -5 28 -12 50 -15 40 -5 41 -7 36 -37 -20
-113 -70 -273 -98 -311 -23 -31 -42 -10 -76 87 -35 97 -66 158 -80 158 -16 0
-49 -51 -66 -103 -29 -90 -62 -157 -77 -157 -20 0 -64 102 -93 216 -33 134
-33 140 16 148 22 3 43 14 49 24 5 9 19 81 32 160 l22 142 114 0 c62 0 113 -1
113 -2z"/>
<path d="M255 6772 l-160 -47 0 -205 c1 -186 3 -211 22 -264 35 -93 87 -152
212 -240 l112 -79 99 67 c119 81 191 156 222 234 20 52 23 76 26 269 l3 213
-23 10 c-42 18 -310 90 -332 89 -11 0 -93 -22 -181 -47z m294 4 c36 -9 70 -21
77 -27 7 -6 19 -7 25 -3 7 4 9 3 6 -2 -3 -6 9 -10 26 -11 18 0 44 -5 60 -11
l27 -12 0 -184 c0 -184 -12 -286 -32 -286 -6 0 -9 -3 -5 -6 12 -12 -26 -68
-85 -126 -60 -58 -72 -66 -82 -49 -7 11 42 44 54 36 5 -3 7 1 4 9 -6 16 29 40
41 28 4 -4 6 0 4 8 -3 20 11 51 21 45 4 -2 15 20 25 50 10 30 22 52 25 50 4
-2 8 89 9 203 l2 208 -154 42 -154 43 -59 -17 c-32 -9 -71 -17 -86 -18 -14 0
-24 -4 -22 -7 2 -3 -22 -12 -54 -19 -100 -23 -93 -6 -89 -213 2 -160 5 -189
25 -237 26 -64 25 -63 10 -54 -7 4 -8 3 -4 -5 4 -6 11 -9 16 -6 5 3 18 -11 29
-32 11 -21 20 -35 21 -31 0 3 15 -8 33 -25 17 -16 31 -34 29 -39 -1 -4 1 -7 5
-7 25 4 43 -2 37 -13 -4 -7 -3 -8 4 -4 7 4 12 4 12 -1 0 -4 18 -19 40 -32 21
-14 37 -28 34 -33 -9 -15 13 -8 38 12 14 10 28 16 32 13 3 -3 6 -1 6 5 0 19
49 47 62 34 7 -7 -2 -18 -30 -36 -23 -14 -47 -27 -54 -28 -7 -2 -18 -9 -24
-16 -8 -11 -19 -8 -58 20 -26 18 -62 42 -80 53 -38 23 -136 115 -136 128 0 4
5 5 12 1 7 -4 8 -3 4 5 -4 6 -11 9 -16 6 -5 -3 -16 8 -25 25 -8 16 -13 30 -9
30 4 0 2 6 -4 13 -22 26 -33 136 -30 297 l3 165 65 17 c126 34 215 59 220 64
7 8 76 -1 149 -20z m41 -55 l135 -38 0 -194 c0 -183 -1 -197 -23 -240 -35 -71
-83 -121 -175 -184 l-84 -56 -80 55 c-97 67 -147 120 -182 195 -24 53 -26 66
-29 238 l-4 182 69 20 c133 39 208 60 223 60 8 1 76 -16 150 -38z"/>
<path d="M287 6650 c-45 -28 -61 -124 -32 -197 8 -21 23 -81 34 -135 20 -99
53 -188 69 -188 16 0 29 22 52 83 12 32 27 56 33 54 6 -2 22 -32 37 -68 15
-38 31 -64 40 -64 23 0 57 81 79 190 11 55 27 118 35 140 21 55 19 104 -4 142
-27 45 -53 56 -114 49 -62 -8 -85 -8 -156 -1 -31 3 -63 1 -73 -5z m123 -15
c27 -14 33 -14 60 0 64 33 131 13 154 -47 20 -49 20 -57 -4 -124 -10 -31 -26
-95 -35 -142 -19 -98 -49 -176 -67 -170 -6 2 -20 29 -30 58 -10 30 -25 61 -34
70 -14 13 -17 13 -29 -4 -8 -10 -22 -42 -31 -70 -9 -28 -20 -55 -24 -60 -15
-15 -49 69 -66 160 -8 49 -24 113 -35 142 -31 86 -19 163 28 191 26 15 80 13
113 -4z"/>
<path d="M4255 6772 l-160 -47 0 -205 c1 -232 10 -275 80 -370 30 -40 170
-154 253 -204 20 -12 193 107 257 175 89 97 99 134 103 386 l3 213 -23 10
c-42 18 -310 90 -332 89 -11 0 -93 -22 -181 -47z m300 3 c39 -10 73 -22 76
-28 4 -5 12 -6 18 -3 6 4 11 2 11 -4 0 -6 4 -9 9 -5 5 3 30 0 55 -7 53 -14 48
14 46 -237 -1 -154 -13 -251 -31 -251 -6 0 -8 -4 -5 -9 18 -28 -132 -180 -222
-226 -21 -11 -45 -25 -54 -33 -15 -12 -22 -10 -63 20 -26 18 -61 42 -79 53
-52 31 -137 118 -131 133 2 7 1 10 -5 7 -5 -3 -16 8 -25 25 -8 16 -13 30 -9
30 4 0 2 6 -4 13 -22 26 -33 136 -30 297 l3 165 65 17 c36 9 101 28 145 41 88
28 124 28 230 2z"/>
<path d="M4375 6763 c-27 -9 -62 -16 -77 -17 -14 0 -24 -4 -23 -7 2 -3 -19
-11 -48 -18 -29 -7 -60 -15 -69 -17 -28 -8 -33 -47 -27 -216 5 -133 10 -173
27 -217 12 -30 18 -59 15 -64 -3 -6 -1 -7 4 -4 10 6 41 -30 45 -50 0 -5 18
-21 39 -36 22 -16 36 -33 33 -38 -3 -5 -2 -9 3 -8 25 4 44 -2 37 -13 -4 -7 -4
-10 0 -6 9 8 36 -14 30 -24 -2 -4 1 -10 7 -14 8 -4 9 -3 5 4 -10 17 9 15 24
-3 24 -29 48 -27 96 9 50 38 75 47 53 19 -13 -16 -12 -17 3 -4 10 7 15 17 13
22 -7 11 30 30 40 21 5 -4 5 -1 1 6 -6 9 -2 12 10 10 10 -2 19 2 19 7 1 18 16
35 26 29 6 -3 9 0 8 7 -3 19 12 50 21 44 4 -3 11 7 14 20 4 16 11 23 18 19 7
-4 8 -3 4 4 -8 14 3 64 13 57 4 -2 9 89 10 203 l2 208 -153 42 c-84 23 -157
42 -163 41 -5 0 -32 -8 -60 -16z m215 -42 l135 -38 0 -194 c0 -183 -1 -197
-23 -240 -35 -71 -83 -121 -175 -184 l-84 -56 -80 55 c-97 67 -147 120 -182
195 -24 53 -26 66 -29 238 l-4 182 69 20 c133 39 208 60 223 60 8 1 76 -16
150 -38z"/>
<path d="M4287 6650 c-45 -28 -61 -124 -32 -197 8 -21 23 -81 34 -135 20 -99
53 -188 69 -188 16 0 29 22 52 83 12 32 27 56 33 54 6 -2 22 -32 37 -68 15
-38 31 -64 40 -64 23 0 57 81 79 190 11 55 27 118 35 140 21 55 19 104 -4 142
-27 45 -53 56 -114 49 -62 -8 -85 -8 -156 -1 -31 3 -63 1 -73 -5z m123 -15
c27 -14 33 -14 60 0 16 8 43 15 60 15 91 0 129 -77 91 -184 -11 -32 -27 -97
-36 -144 -19 -98 -49 -176 -67 -170 -6 2 -20 29 -30 58 -10 30 -25 61 -34 70
-14 13 -17 13 -29 -4 -8 -10 -22 -42 -31 -70 -9 -28 -20 -55 -24 -60 -15 -15
-49 69 -65 160 -9 49 -25 112 -36 139 -32 83 -19 166 28 194 26 15 80 13 113
-4z"/>
<path d="M1192 6704 c-13 -8 -22 -26 -22 -40 0 -19 -5 -24 -24 -24 -14 0 -27
-4 -31 -9 -7 -13 -8 -618 0 -631 7 -11 781 -15 809 -4 14 5 16 43 16 319 0
337 2 325 -51 325 -13 0 -19 7 -19 23 0 27 -10 41 -32 50 -23 8 -48 -18 -48
-49 l0 -24 -270 0 -270 0 0 30 c0 38 -28 55 -58 34z m-22 -96 c0 -50 42 -75
73 -43 10 10 43 15 108 18 l94 3 -100 4 -100 4 140 6 140 6 -138 2 c-89 1
-136 6 -132 12 4 6 102 9 268 7 l262 -2 5 -29 c10 -57 71 -61 78 -5 5 33 16
42 41 34 21 -6 21 -10 21 -301 l0 -294 -142 -2 -143 -2 145 -6 c244 -9 133
-16 -210 -13 -179 1 -355 2 -392 3 l-68 0 0 304 c0 235 3 305 13 309 25 8 37
3 37 -15z"/>
<path d="M1160 6500 c0 -20 7 -20 365 -20 358 0 365 0 365 20 0 20 -7 20 -365
20 -358 0 -365 0 -365 -20z"/>
<path d="M5192 6704 c-13 -8 -22 -26 -22 -40 0 -19 -5 -24 -24 -24 -14 0 -27
-4 -31 -9 -7 -13 -8 -618 0 -631 7 -11 781 -15 809 -4 14 5 16 43 16 319 0
337 2 325 -51 325 -13 0 -19 7 -19 24 0 24 -23 56 -40 56 -17 0 -40 -32 -40
-56 l0 -24 -270 0 -270 0 0 30 c0 38 -28 55 -58 34z m-22 -96 c0 -50 42 -75
73 -43 10 10 43 15 108 18 l94 3 -100 4 -100 4 140 6 140 6 -138 2 c-89 1
-136 6 -132 12 4 6 102 9 268 7 l262 -2 5 -29 c10 -57 71 -61 78 -5 5 33 16
42 41 34 21 -6 21 -10 21 -301 l0 -294 -142 -2 -143 -2 145 -6 c80 -3 138 -8
130 -11 -12 -4 -228 -4 -732 0 l-68 1 0 304 c0 235 3 305 13 309 25 8 37 3 37
-15z"/>
<path d="M5160 6500 c0 -20 7 -20 365 -20 358 0 365 0 365 20 0 20 -7 20 -365
20 -358 0 -365 0 -365 -20z"/>
<path d="M2435 6051 c-27 -11 -52 -41 -57 -66 -3 -18 -13 -20 -111 -25 -81 -4
-110 -9 -117 -20 -6 -8 -10 -126 -10 -266 0 -235 1 -252 19 -268 18 -16 52
-17 407 -16 293 0 390 4 396 13 9 14 11 518 2 541 -5 13 -25 16 -120 16 -114
0 -114 0 -114 24 0 13 -9 34 -19 47 -18 23 -27 24 -138 26 -65 2 -127 -1 -138
-6z m295 -124 c0 -9 3 -8 8 1 6 9 35 12 108 10 l99 -3 3 -227 2 -228 -39 0
c-22 0 -47 -3 -57 -7 -16 -6 -16 -7 2 -14 13 -6 3 -8 -28 -7 -47 2 -68 -6 -55
-18 4 -4 43 -6 87 -5 48 1 80 -2 80 -8 0 -13 -17 -23 -23 -14 -3 5 -166 6
-363 3 -271 -4 -361 -2 -370 7 -6 7 -14 9 -18 6 -3 -4 -6 96 -6 220 l0 227 43
0 c23 0 53 3 67 7 l25 7 -25 7 c-21 6 -19 7 13 8 23 1 36 -3 32 -9 -11 -18 1
-11 21 13 l20 22 -101 -3 c-55 -2 -96 0 -92 5 11 10 268 19 440 15 90 -2 127
-7 127 -15z"/>
<path d="M2518 5882 c10 -7 5 -11 -21 -16 -19 -4 -41 -13 -48 -22 -7 -8 -18
-13 -26 -10 -8 3 -12 2 -9 -3 3 -4 -3 -17 -13 -27 -39 -42 -52 -129 -29 -195
13 -40 43 -81 52 -72 3 3 6 2 6 -4 0 -21 74 -47 137 -48 34 0 60 1 58 4 -9 8
66 41 78 35 9 -5 9 -3 0 6 -10 11 -9 18 9 37 12 13 23 33 25 46 2 12 7 23 12
25 5 1 4 24 -1 50 -5 26 -10 55 -11 64 -2 9 -11 25 -20 36 -9 10 -13 22 -9 28
4 5 5 8 3 7 -2 -2 -11 3 -19 10 -13 10 -14 9 -7 -3 4 -8 -3 -5 -16 6 -24 22
-53 34 -92 38 -12 2 -33 6 -47 10 -17 5 -21 4 -12 -2z m128 -57 c48 -28 84
-91 84 -145 0 -44 -35 -115 -68 -139 -124 -88 -290 -1 -279 146 9 135 146 207
263 138z"/>
<path d="M2517 5798 c-2 -7 -3 -28 -2 -45 3 -32 1 -33 -34 -33 -49 0 -63 -12
-59 -46 3 -26 7 -29 48 -34 43 -5 45 -6 47 -40 2 -49 1 -47 19 -54 36 -14 54
3 54 49 l0 44 48 3 c44 3 47 5 50 32 4 35 -10 46 -60 46 l-38 0 0 45 c0 44 0
45 -34 45 -19 0 -36 -6 -39 -12z"/>
<path d="M6435 6051 c-27 -11 -52 -41 -57 -66 -3 -18 -13 -20 -111 -25 -81 -4
-110 -9 -117 -20 -6 -8 -10 -126 -10 -266 0 -235 1 -252 19 -268 18 -16 52
-17 407 -16 293 0 390 4 396 13 9 14 11 518 2 541 -5 13 -25 16 -120 16 -114
0 -114 0 -114 24 0 13 -9 34 -19 47 -18 23 -27 24 -138 26 -65 2 -127 -1 -138
-6z m513 -343 l2 -228 -39 0 c-22 0 -47 -3 -57 -7 -16 -6 -16 -7 2 -14 12 -5
1 -8 -33 -8 -29 -1 -53 -5 -53 -11 0 -12 2 -12 98 -10 42 1 72 -3 72 -9 0 -13
-17 -23 -23 -14 -3 5 -166 6 -363 3 -271 -4 -361 -2 -370 7 -6 7 -14 9 -18 6
-3 -4 -6 96 -6 220 l0 227 44 0 c24 0 52 3 62 7 16 6 16 7 -2 14 -14 6 -9 8
19 8 23 1 36 -3 32 -9 -11 -18 1 -11 21 13 l20 22 -101 -3 c-71 -2 -96 0 -85
7 10 7 146 10 395 8 l380 -2 3 -227z"/>
<path d="M6500 5868 c-19 -5 -43 -17 -52 -25 -9 -8 -22 -12 -28 -8 -6 3 -9 3
-8 -2 2 -4 -7 -25 -20 -45 -29 -46 -38 -123 -22 -174 15 -44 44 -87 54 -77 3
3 6 2 6 -4 0 -22 75 -47 144 -48 39 -1 64 1 58 3 -7 2 3 13 23 23 20 11 41 16
48 12 9 -5 9 -3 0 8 -11 13 -9 20 10 37 38 36 44 173 8 216 -7 9 -11 22 -8 31
4 8 1 17 -5 21 -6 4 -8 3 -4 -4 3 -6 2 -13 -3 -16 -5 -3 -11 0 -14 7 -14 36
-125 63 -187 45z m128 -32 c60 -32 102 -96 102 -158 0 -43 -36 -114 -68 -137
-120 -85 -281 -5 -282 140 0 57 42 128 91 152 42 20 121 22 157 3z"/>
<path d="M6519 5798 c-1 -7 -1 -28 0 -45 2 -32 0 -33 -36 -33 -51 0 -65 -11
-61 -46 3 -26 7 -29 48 -34 42 -5 45 -7 46 -35 3 -51 4 -53 18 -58 8 -3 24 -3
35 0 17 4 21 13 21 49 l0 43 48 3 c44 3 47 5 50 32 4 35 -10 46 -60 46 l-38 0
0 45 c0 45 0 45 -35 45 -21 0 -36 -5 -36 -12z"/>
<path d="M3744 5986 c-62 -28 -97 -104 -76 -165 10 -29 7 -33 -74 -113 -47
-46 -94 -84 -104 -86 -20 -3 -60 -38 -355 -312 -98 -91 -198 -182 -222 -203
-24 -22 -43 -48 -43 -59 0 -23 70 -98 92 -98 12 0 124 113 491 496 48 50 87
98 87 106 0 8 41 56 92 106 74 73 95 89 109 81 27 -14 87 -11 120 6 83 43 91
179 14 229 -35 23 -95 28 -131 12z m106 -21 c89 -46 79 -171 -16 -211 -29 -12
-40 -12 -76 1 l-43 14 -92 -91 c-51 -51 -96 -89 -100 -85 -4 4 35 50 87 102
89 90 93 95 82 120 -46 101 59 201 158 150z m-341 -388 l22 -24 -281 -291
c-155 -161 -284 -292 -288 -292 -13 0 -72 65 -72 79 0 10 10 6 30 -14 34 -33
41 -23 8 12 -26 28 -16 43 12 18 23 -21 27 -10 5 15 -13 15 11 40 258 268 149
138 275 252 278 252 3 0 15 -11 28 -23z"/>
<path d="M3752 5955 c-39 -17 -66 -72 -57 -116 4 -16 20 -40 37 -54 68 -57
168 -9 168 82 0 38 -25 72 -66 89 -40 17 -41 17 -82 -1z m102 -30 c57 -53 15
-149 -64 -147 -36 1 -73 29 -65 49 2 8 0 11 -5 8 -13 -8 -13 55 0 75 5 8 10
12 10 8 0 -5 9 1 20 12 27 27 71 25 104 -5z"/>
<path d="M7744 5986 c-62 -28 -97 -104 -76 -166 11 -29 8 -32 -76 -115 -48
-46 -94 -85 -103 -85 -17 0 -57 -35 -354 -310 -98 -91 -198 -182 -222 -203
-24 -21 -43 -47 -43 -58 0 -22 71 -99 92 -99 12 0 124 113 491 496 48 50 87
98 87 106 0 8 41 56 92 106 74 73 95 89 109 81 27 -14 87 -11 120 6 83 43 91
179 14 229 -35 23 -95 28 -131 12z m106 -21 c89 -46 79 -171 -16 -211 -29 -12
-40 -12 -76 1 l-43 14 -92 -91 c-51 -51 -96 -89 -100 -85 -4 4 35 49 85 100
88 89 92 95 82 121 -40 106 61 202 160 151z m-341 -388 l22 -24 -281 -291
c-155 -161 -284 -292 -288 -292 -13 0 -72 65 -72 79 0 10 10 6 30 -14 34 -33
41 -23 8 12 -26 28 -16 43 12 18 23 -21 27 -10 5 15 -13 15 11 40 258 268 149
138 275 252 278 252 3 0 15 -11 28 -23z"/>
<path d="M7752 5955 c-39 -17 -66 -72 -57 -116 4 -16 20 -40 37 -54 68 -57
168 -9 168 82 0 38 -25 72 -66 89 -40 17 -41 17 -82 -1z m111 -36 c27 -34 19
-96 -15 -122 -76 -56 -166 20 -128 108 5 11 9 17 9 13 1 -5 11 2 22 13 27 27
85 20 112 -12z"/>
<path d="M565 5916 c-34 -15 -85 -70 -85 -92 0 -8 -4 -14 -10 -14 -5 0 -10 6
-10 14 0 8 -16 28 -35 45 -31 27 -43 31 -92 31 -51 0 -58 -3 -94 -39 l-39 -39
0 -141 0 -141 134 0 c109 0 135 -3 140 -15 8 -22 601 -22 613 0 7 11 38 15
143 17 l135 3 3 115 c3 137 -9 184 -58 218 -67 45 -175 19 -204 -49 l-13 -31
-10 28 c-25 69 -104 114 -177 100 -40 -8 -101 -56 -111 -87 -9 -27 -18 -24
-36 14 -18 37 -87 77 -134 77 -16 -1 -44 -7 -60 -14z m136 -23 c44 -26 69 -87
69 -166 l0 -67 -38 0 c-25 0 -43 7 -55 20 -11 13 -29 20 -52 20 -24 0 -39 -6
-47 -20 -9 -14 -24 -20 -50 -20 l-38 0 0 75 c0 88 16 127 63 155 40 25 109 26
148 3z m320 -10 c43 -36 59 -79 59 -158 l0 -65 -38 0 c-25 0 -43 7 -55 20 -11
13 -29 20 -52 20 -24 0 -37 -6 -45 -20 -8 -15 -21 -20 -51 -20 l-41 0 4 91 c3
90 3 91 40 125 33 30 44 34 92 34 45 0 60 -5 87 -27z m-623 -13 c42 -26 62
-73 62 -150 0 -57 -1 -60 -25 -60 -14 0 -34 9 -45 20 -22 22 -79 27 -98 8 -15
-15 -15 -61 0 -76 16 -16 69 -15 94 2 11 8 31 16 44 17 23 4 25 0 28 -39 l3
-43 -123 3 -123 3 0 127 c0 113 2 130 21 155 41 55 104 68 162 33z m886 5 c56
-27 66 -57 66 -199 l0 -126 -120 0 -120 0 0 40 c0 37 2 40 29 40 16 0 34 -7
41 -15 15 -18 81 -20 98 -3 19 19 15 66 -7 78 -33 17 -80 12 -93 -10 -8 -12
-24 -20 -40 -20 -28 0 -28 0 -28 70 0 84 18 126 63 145 42 19 72 18 111 0z
m-514 -296 l0 -49 -140 0 -140 0 0 50 0 50 39 0 c22 0 44 -6 51 -15 18 -21 82
-19 101 3 12 13 26 17 52 14 37 -4 37 -4 37 -53z m310 0 l0 -49 -140 0 c-133
0 -140 1 -141 20 -4 80 -7 75 41 78 31 2 46 -1 52 -12 11 -20 84 -22 95 -2 11
17 30 23 65 18 26 -4 28 -7 28 -53z"/>
<path d="M4565 5916 c-34 -15 -85 -70 -85 -92 0 -8 -4 -14 -10 -14 -5 0 -10 6
-10 14 0 8 -16 28 -35 45 -31 27 -43 31 -92 31 -51 0 -58 -3 -94 -39 l-39 -39
0 -141 0 -141 134 0 c109 0 135 -3 140 -15 8 -22 601 -22 613 0 7 11 38 15
143 17 l135 3 3 115 c3 137 -9 184 -58 218 -67 45 -175 19 -204 -49 l-13 -31
-10 28 c-25 69 -104 114 -177 100 -40 -8 -101 -56 -111 -87 -9 -27 -18 -24
-36 14 -18 37 -87 77 -134 77 -16 -1 -44 -7 -60 -14z m136 -23 c44 -26 69 -87
69 -166 l0 -67 -38 0 c-25 0 -43 7 -55 20 -11 13 -29 20 -52 20 -24 0 -39 -6
-47 -20 -9 -14 -24 -20 -50 -20 l-38 0 0 75 c0 88 16 127 63 155 40 25 109 26
148 3z m320 -10 c43 -36 59 -79 59 -158 l0 -65 -38 0 c-25 0 -43 7 -55 20 -11
13 -29 20 -53 20 -27 0 -37 -5 -41 -20 -4 -16 -14 -20 -49 -20 l-44 0 0 78 c0
42 6 88 13 102 36 70 147 94 208 43z m-623 -13 c42 -26 62 -73 62 -150 0 -57
-1 -60 -25 -60 -14 0 -34 9 -45 20 -22 22 -79 27 -98 8 -15 -15 -15 -61 0 -76
16 -16 69 -15 94 2 11 8 31 16 44 17 23 4 25 0 28 -39 l3 -43 -123 3 -123 3 0
127 c0 113 2 130 21 155 41 55 104 68 162 33z m886 5 c56 -27 66 -57 66 -199
l0 -126 -120 0 -120 0 0 40 c0 37 2 40 29 40 16 0 34 -7 41 -15 15 -18 81 -20
98 -3 19 19 15 66 -7 78 -33 17 -80 12 -93 -10 -8 -12 -24 -20 -40 -20 -28 0
-28 0 -28 70 0 84 18 126 63 145 42 19 72 18 111 0z m-204 -296 l0 -49 -139 0
c-153 0 -150 -1 -147 66 2 27 5 29 46 32 31 2 46 -1 52 -12 11 -20 84 -22 95
-2 11 17 30 23 65 18 26 -4 28 -7 28 -53z m-500 36 c7 -9 29 -15 52 -15 25 0
41 5 44 15 4 10 20 15 50 15 l44 0 0 -50 0 -50 -140 0 -140 0 0 50 0 50 39 0
c22 0 44 -6 51 -15z"/>
<path d="M1646 5702 c-2 -4 -7 -24 -11 -45 -6 -30 -12 -37 -30 -37 -16 0 -31
-14 -53 -47 l-30 -48 -16 -325 c-9 -179 -16 -360 -16 -403 l0 -77 200 0 200 0
0 43 c0 23 -9 205 -20 405 l-19 362 -31 45 c-17 25 -39 45 -52 47 -18 2 -25
12 -32 46 -9 40 -10 42 -47 42 -21 0 -40 -3 -43 -8z m152 -122 c12 -16 22 -33
22 -38 0 -6 -59 -10 -135 -10 -74 0 -135 3 -135 6 0 3 10 21 23 39 l22 33 91
0 c88 0 91 -1 112 -30z m33 -80 c0 -8 8 -156 17 -327 l17 -313 -32 0 c-45 0
-42 -18 5 -23 27 -3 22 -4 -20 -5 -32 -1 -58 -6 -58 -12 0 -5 26 -11 58 -13
31 -2 -26 -4 -127 -5 l-184 -2 7 148 c20 437 26 500 44 507 8 3 19 1 22 -6 6
-8 9 -8 14 0 11 18 -2 29 -29 23 -15 -2 -25 0 -25 7 0 7 22 11 57 11 62 0 64
16 3 22 -19 2 25 4 97 3 111 0 133 -2 134 -15z"/>
<path d="M1589 5355 c-5 0 -34 -411 -30 -417 3 -4 63 -8 134 -10 l128 -3 -5
40 c-3 22 -8 87 -11 145 -3 58 -8 137 -11 175 l-6 70 -99 0 c-54 0 -100 0
-100 0z m185 -77 c11 -106 23 -313 19 -320 -2 -5 -52 -8 -110 -8 l-106 0 7
113 c4 61 9 147 13 190 l6 77 83 0 83 0 5 -52z"/>
<path d="M5646 5702 c-2 -4 -7 -24 -11 -45 -6 -30 -12 -37 -30 -37 -16 0 -31
-14 -53 -47 l-30 -48 -16 -325 c-9 -179 -16 -360 -16 -403 l0 -77 200 0 200 0
0 43 c0 23 -9 205 -20 405 l-19 362 -31 45 c-17 25 -39 45 -52 47 -18 2 -25
12 -32 46 -9 40 -10 42 -47 42 -21 0 -40 -3 -43 -8z m152 -122 c12 -16 22 -33
22 -38 0 -6 -59 -10 -135 -10 -74 0 -135 3 -135 6 0 3 10 21 23 39 l22 33 91
0 c88 0 91 -1 112 -30z m33 -80 c0 -8 8 -156 17 -327 l17 -313 -32 0 c-45 0
-42 -18 5 -23 27 -3 22 -4 -20 -5 -32 -1 -58 -6 -58 -12 0 -5 26 -11 58 -13
31 -2 -25 -4 -125 -5 l-183 -2 0 43 c0 80 30 600 34 605 3 2 17 5 31 5 15 0
24 4 22 11 -2 6 -16 10 -30 9 -15 -1 -27 2 -27 7 0 6 26 10 57 10 62 0 64 16
3 22 -19 2 25 4 97 3 111 0 133 -2 134 -15z"/>
<path d="M5589 5355 c-5 0 -34 -411 -30 -417 3 -4 63 -8 134 -10 l128 -3 -5
40 c-3 22 -8 87 -11 145 -3 58 -8 137 -11 175 l-6 70 -99 0 c-54 0 -100 0
-100 0z m185 -77 c11 -106 23 -313 19 -320 -2 -5 -52 -8 -110 -8 l-106 0 7
113 c4 61 9 147 13 190 l6 77 83 0 83 0 5 -52z"/>
<path d="M0 5420 c0 -5 6 -10 13 -10 8 0 7 -4 -3 -10 -12 -8 -10 -10 10 -10
l25 -1 -25 -12 c-24 -11 -24 -11 12 -15 37 -3 38 -4 38 -43 0 -44 -17 -53 -22
-11 -2 19 -9 28 -25 30 -13 2 -23 -1 -23 -7 0 -6 7 -11 15 -11 21 0 19 -37 -3
-49 -14 -9 -14 -12 -3 -20 11 -7 11 -9 0 -14 -8 -3 10 -6 39 -6 116 -2 212
-99 212 -215 0 -42 -42 -128 -74 -154 -41 -31 -110 -55 -150 -50 -20 2 -36 1
-36 -3 0 -5 21 -10 48 -12 l47 -3 -47 -2 c-27 -1 -48 -6 -48 -12 0 -5 7 -10
15 -10 12 0 15 -14 15 -70 0 -56 -3 -70 -15 -70 -17 0 -20 -16 -6 -24 5 -4 16
-3 25 0 13 5 16 22 16 79 0 41 5 77 11 80 7 5 9 -29 8 -107 -2 -119 -5 -138
-21 -138 -5 0 -6 6 -3 13 4 6 1 5 -7 -4 -7 -9 -19 -14 -25 -12 -7 3 -13 -2
-13 -11 0 -24 38 -19 65 9 24 23 25 30 25 143 l0 120 31 6 c81 16 164 117 176
214 12 104 -52 212 -152 253 l-55 23 0 52 c0 35 -6 58 -17 72 -20 22 -73 38
-73 22z"/>
<path d="M3614 5422 c-43 -8 -44 -14 -44 -462 0 -352 2 -430 14 -446 13 -18
30 -19 235 -22 l221 -3 25 26 c25 24 26 29 24 142 l-1 117 33 9 c86 22 164
118 176 215 12 104 -52 212 -152 253 l-55 23 0 52 c0 36 -6 59 -19 75 -18 22
-22 23 -228 23 -115 1 -218 -1 -229 -2z m344 -23 c-9 -6 -3 -10 19 -15 18 -4
30 -10 27 -15 -3 -5 11 -9 30 -9 35 0 36 -1 36 -40 0 -45 -17 -55 -22 -12 l-3
27 -218 0 -218 0 -2 -365 -2 -365 95 3 c58 2 90 -1 82 -6 -8 -5 -12 -23 -10
-43 l3 -34 55 0 55 0 3 37 c3 35 1 37 -30 41 -18 3 12 5 67 5 55 0 106 1 113
1 8 1 12 23 12 75 0 41 5 78 10 81 17 10 10 -223 -6 -240 -10 -9 -61 -13 -189
-14 -162 -2 -176 -1 -173 15 3 15 -5 18 -52 17 -30 -1 -41 1 -25 4 46 7 55 23
12 23 l-37 0 0 410 c0 379 1 410 18 420 10 6 84 9 190 8 95 0 167 -5 160 -9z
m72 -99 c0 -11 -6 -22 -12 -24 -104 -30 -175 -86 -204 -162 -20 -53 -16 -154
9 -203 22 -44 22 -44 -8 -79 -14 -17 -22 -32 -18 -35 5 -2 33 -1 63 3 35 4 64
2 80 -6 14 -6 40 -15 58 -19 l32 -7 0 -69 0 -69 -200 0 -200 0 0 345 0 345
200 0 c194 0 200 -1 200 -20z m108 -89 c51 -26 88 -68 107 -120 22 -62 19
-100 -12 -162 -64 -124 -221 -155 -323 -63 -56 50 -73 94 -68 170 5 78 41 136
107 171 56 29 136 31 189 4z"/>
<path d="M3945 5165 c-29 -28 -31 -57 -11 -129 8 -28 23 -82 33 -121 14 -56
22 -70 37 -70 14 0 23 12 34 43 16 48 24 46 42 -10 23 -75 55 -38 85 97 30
136 30 163 4 191 -24 26 -76 33 -96 13 -8 -8 -17 -8 -31 0 -34 18 -71 13 -97
-14z m84 4 c23 -8 39 -8 59 0 39 16 79 0 88 -36 4 -15 1 -47 -5 -72 -7 -25
-19 -74 -26 -108 -8 -34 -19 -72 -26 -84 -11 -22 -12 -22 -28 19 -28 70 -37
72 -64 11 l-25 -54 -11 30 c-7 16 -18 59 -26 95 -8 36 -19 78 -24 93 -17 43
-13 66 14 92 28 28 31 29 74 14z"/>
<path d="M7614 5422 c-43 -8 -44 -14 -44 -462 0 -352 2 -430 14 -446 13 -17
30 -19 215 -22 137 -2 201 0 201 7 0 7 -53 11 -155 11 -141 0 -156 2 -153 17
3 14 -6 17 -52 16 -44 -1 -48 0 -21 5 47 9 52 29 6 24 l-35 -4 0 411 c0 395 1
411 19 421 33 17 294 13 341 -6 40 -16 68 -12 40 6 -13 8 -13 10 -1 10 8 0 11
3 8 7 -7 6 -347 11 -383 5z"/>
<path d="M577 5312 c-61 -61 -88 -95 -85 -108 5 -29 37 -29 67 0 l27 26 29
-30 29 -30 -37 -38 c-39 -39 -47 -69 -23 -78 8 -3 24 0 37 6 20 11 38 -4 263
-229 133 -133 247 -241 254 -241 7 0 24 7 38 16 23 16 26 16 48 -5 12 -11 29
-21 36 -21 8 0 65 -50 126 -111 102 -100 134 -121 134 -86 0 7 -47 59 -105
117 -58 58 -103 109 -101 115 2 5 -8 25 -21 43 -23 31 -24 35 -9 51 9 10 16
24 16 32 0 8 -110 125 -244 259 -237 238 -243 245 -229 267 18 27 11 53 -14
53 -9 0 -34 -17 -55 -37 l-38 -37 -30 29 -30 29 26 27 c29 31 29 63 -1 67 -14
2 -47 -25 -108 -86z m346 -254 c-32 -33 -20 -38 14 -6 22 21 24 21 40 5 16
-16 15 -19 -15 -50 -45 -47 -40 -59 6 -14 l38 38 20 -23 c15 -18 15 -20 2 -9
-16 12 -25 6 -85 -53 l-68 -65 132 -133 133 -133 70 70 c38 38 70 65 70 59 0
-5 -31 -41 -70 -79 l-70 -69 -246 245 -246 246 73 76 74 76 77 -77 78 -76 -27
-28z m78 -97 c-14 -13 -18 -22 -11 -26 6 -4 20 1 30 10 16 15 22 16 35 5 14
-12 12 -17 -15 -45 -16 -17 -30 -34 -30 -38 0 -12 38 -8 46 5 5 7 2 8 -7 3 -8
-5 -3 4 10 18 23 25 26 26 43 10 20 -18 19 -23 -8 -27 -20 -3 -29 -52 -11 -62
7 -4 9 -3 4 1 -4 5 2 19 14 31 18 19 24 21 40 11 11 -7 19 -15 19 -20 0 -4 -4
-5 -10 -2 -5 3 -10 -2 -10 -11 0 -10 -3 -14 -7 -11 -6 7 -32 -21 -33 -35 0
-19 31 -5 50 22 12 17 26 28 31 24 5 -3 7 -10 3 -15 -3 -5 -2 -9 3 -8 23 4 25
-3 5 -17 -31 -22 -28 -41 8 -41 25 0 27 2 13 12 -11 8 -13 14 -5 19 7 4 17 4
22 1 21 -13 8 -43 -40 -90 -44 -43 -52 -47 -64 -35 -8 8 -16 26 -18 40 -3 24
-15 40 -31 40 -5 0 -1 -7 7 -16 26 -25 18 -39 -8 -15 -38 35 -57 82 -43 101
10 13 10 13 -5 2 -10 -8 -14 -21 -11 -30 3 -9 -17 6 -45 33 -49 48 -72 83 -34
54 15 -13 16 -12 4 3 -8 10 -20 14 -30 11 -15 -6 -16 -5 -2 13 23 30 104 104
109 99 2 -3 -6 -13 -18 -24z"/>
<path d="M4577 5312 c-61 -61 -88 -95 -85 -108 5 -29 37 -29 67 0 l27 26 29
-30 29 -30 -38 -39 c-39 -40 -45 -73 -15 -79 9 -2 23 4 31 12 13 13 45 -15
259 -230 134 -134 251 -244 259 -244 9 0 26 7 38 16 22 15 25 15 46 -5 12 -12
29 -21 36 -21 8 0 65 -50 126 -111 102 -100 134 -121 134 -86 0 7 -47 59 -105
117 -58 58 -103 109 -101 115 2 5 -8 25 -21 43 -23 31 -24 35 -9 51 9 10 16
24 16 32 0 8 -110 125 -244 259 -225 225 -244 246 -230 262 9 9 14 25 12 35
-6 32 -38 27 -79 -13 l-39 -38 -30 29 -30 29 26 27 c29 31 29 63 -1 67 -14 2
-47 -25 -108 -86z m346 -254 c-32 -33 -20 -38 14 -6 22 21 24 21 40 5 16 -16
15 -19 -15 -50 -45 -47 -40 -59 6 -14 l38 38 20 -23 c15 -18 15 -20 2 -9 -16
12 -25 6 -85 -53 l-68 -65 132 -133 133 -133 70 70 c38 38 70 65 70 59 0 -5
-31 -41 -70 -79 l-70 -69 -246 245 -246 246 73 76 74 76 77 -76 78 -77 -27
-28z m78 -97 c-14 -13 -18 -22 -11 -26 6 -4 20 1 31 11 19 17 20 17 37 -1 16
-17 16 -17 0 -12 -11 4 -15 2 -12 -7 3 -7 -4 -21 -16 -31 -11 -10 -20 -22 -20
-27 0 -12 38 -10 46 4 5 7 2 8 -7 3 -8 -5 -3 4 10 19 22 23 27 25 40 12 13
-14 13 -17 -1 -33 -8 -10 -18 -27 -22 -38 -6 -17 -3 -15 21 7 24 23 31 25 46
14 18 -14 24 -32 7 -21 -5 3 -10 -1 -10 -9 0 -8 -9 -20 -20 -26 -23 -12 -27
-30 -6 -30 8 0 24 14 36 30 12 17 26 28 31 24 5 -3 7 -10 3 -15 -3 -5 -2 -9 3
-8 23 4 25 -3 5 -17 -31 -22 -28 -41 8 -41 25 0 27 2 13 12 -11 8 -13 14 -5
19 7 4 17 4 22 1 21 -13 8 -43 -40 -90 -42 -41 -51 -46 -65 -35 -16 13 -20 45
-7 54 10 6 43 -20 35 -28 -4 -4 1 -4 11 0 16 6 15 9 -10 23 -16 8 -32 14 -36
13 -5 -1 -8 4 -8 11 0 8 -3 8 -9 -2 -5 -8 -7 -21 -4 -30 3 -9 -11 0 -30 20
-36 37 -47 65 -34 86 6 9 3 11 -8 7 -11 -4 -14 -13 -9 -28 4 -14 -9 -6 -45 29
-51 50 -71 85 -28 49 12 -10 17 -12 10 -5 -6 7 -9 21 -6 30 3 9 1 12 -4 6 -4
-5 -17 -12 -27 -13 -18 -3 -18 -2 -6 15 23 30 104 102 109 98 2 -3 -6 -13 -18
-24z"/>
<path d="M7610 5338 c0 -2 -1 -167 -3 -368 l-2 -365 95 3 c58 2 90 -1 82 -6
-8 -5 -12 -23 -10 -43 l3 -34 55 0 55 0 3 37 c3 35 1 37 -30 41 -18 2 6 5 55
5 50 1 87 6 87 12 0 6 -68 10 -185 10 l-185 0 0 345 0 345 185 0 c117 0 185 4
185 10 0 8 -390 16 -390 8z"/>
<path d="M7945 5251 c-54 -25 -111 -84 -131 -137 -20 -53 -16 -154 9 -203 22
-44 22 -44 -8 -79 -14 -17 -22 -32 -18 -35 5 -2 34 -1 65 2 39 5 65 3 80 -6
34 -18 58 -16 58 6 0 12 -9 21 -25 25 -36 9 -93 63 -117 109 -16 32 -19 54
-16 103 5 80 42 137 111 173 34 17 44 27 35 32 -10 7 -10 9 0 9 6 0 12 5 12
10 0 14 -9 12 -55 -9z"/>
<path d="M2645 5040 c-8 -25 -31 -26 -44 -3 -15 27 -66 6 -66 -27 0 -21 -4
-25 -28 -23 -20 1 -32 -5 -44 -24 -16 -24 -16 -26 1 -35 16 -9 13 -13 -24 -29
-51 -23 -64 -23 -94 -4 -33 22 -123 22 -163 1 -75 -39 -97 -156 -50 -276 14
-36 30 -100 37 -142 14 -97 41 -191 69 -246 17 -33 27 -43 43 -40 17 2 28 22
54 92 18 49 38 94 43 99 11 11 38 -42 76 -146 14 -39 21 -48 39 -45 34 5 72
98 105 259 34 172 52 219 84 219 33 0 49 15 45 41 -3 22 0 24 30 21 26 -2 35
3 44 23 9 19 9 28 0 37 -18 18 -14 35 8 41 28 7 29 67 1 67 -28 0 -36 18 -20
46 11 22 10 27 -9 46 -17 18 -24 19 -36 9 -19 -16 -36 -6 -36 20 0 12 -10 23
-26 29 -33 13 -32 13 -39 -10z m68 -110 c37 -41 37 -96 1 -139 -14 -17 -30
-31 -35 -31 -4 0 -13 17 -19 39 -14 52 -43 87 -85 102 -19 7 -35 17 -35 21 0
5 15 17 33 29 46 29 103 20 140 -21z m-367 -50 l44 -20 40 20 c81 42 176 15
207 -58 19 -46 13 -153 -11 -201 -10 -19 -27 -84 -37 -145 -20 -116 -61 -247
-83 -266 -18 -14 -29 1 -57 80 -12 36 -31 78 -42 93 -29 42 -37 31 -97 -125
-12 -32 -26 -58 -31 -58 -25 0 -69 129 -98 291 -10 58 -27 121 -36 140 -10 18
-20 61 -23 94 -5 72 20 135 66 159 38 21 106 19 158 -4z"/>
<path d="M6643 5040 c-7 -25 -29 -26 -42 -3 -15 27 -66 6 -66 -27 0 -21 -4
-25 -28 -23 -20 1 -32 -5 -44 -24 -16 -24 -16 -26 1 -35 16 -9 13 -13 -24 -29
-51 -23 -64 -23 -94 -4 -33 22 -123 22 -163 1 -75 -39 -96 -156 -50 -276 14
-36 30 -99 36 -140 17 -107 39 -186 67 -242 20 -39 30 -49 46 -46 17 2 28 22
54 92 18 49 38 94 43 99 11 11 38 -42 76 -146 14 -39 21 -48 39 -45 34 5 71
97 104 258 36 175 53 220 85 220 33 0 49 15 45 41 -3 22 0 24 30 21 26 -2 35
3 44 23 9 19 9 28 0 37 -18 18 -14 35 8 41 28 7 29 67 1 67 -28 0 -36 18 -20
46 11 22 10 27 -9 46 -17 18 -24 19 -36 9 -19 -16 -36 -6 -36 20 0 12 -10 23
-26 29 -34 13 -35 13 -41 -10z m70 -110 c37 -41 37 -96 1 -139 -14 -17 -30
-31 -35 -31 -4 0 -13 17 -19 39 -14 52 -43 87 -85 102 -19 7 -35 17 -35 21 0
5 15 17 33 29 46 29 103 20 140 -21z m-367 -50 l44 -20 40 20 c115 58 223 -10
221 -139 0 -45 -5 -67 -35 -146 -8 -22 -22 -85 -31 -140 -18 -104 -58 -227
-80 -245 -17 -14 -28 1 -56 80 -12 36 -31 78 -42 93 -29 42 -37 31 -97 -125
-12 -32 -26 -58 -31 -58 -25 0 -69 129 -98 291 -10 58 -27 121 -36 140 -10 18
-20 61 -23 94 -5 72 20 135 66 159 38 21 106 19 158 -4z"/>
<path d="M2829 4708 c-10 -18 -12 -18 -27 -5 -21 19 -52 5 -52 -23 0 -13 -7
-20 -20 -20 -26 0 -41 -29 -26 -52 9 -15 8 -21 -6 -29 -20 -11 -10 -54 13 -54
9 0 13 -10 11 -26 -3 -35 22 -57 44 -39 13 11 16 10 21 -8 7 -30 41 -39 58
-15 10 14 16 15 26 6 18 -18 59 4 56 31 -1 14 4 21 17 21 23 0 47 35 29 42
-18 6 -16 24 3 38 14 9 14 16 5 34 -7 12 -16 19 -21 16 -14 -9 -23 15 -11 29
8 10 6 18 -9 31 -16 15 -22 16 -35 5 -14 -11 -17 -10 -21 7 -8 30 -42 36 -55
11z m57 -70 c7 -5 17 -22 24 -38 24 -57 -38 -122 -98 -103 -38 13 -64 66 -50
105 17 48 85 68 124 36z"/>
<path d="M6829 4708 c-10 -18 -12 -18 -27 -5 -21 19 -52 5 -52 -23 0 -13 -7
-20 -20 -20 -26 0 -41 -29 -26 -52 9 -15 8 -21 -6 -29 -20 -11 -10 -54 13 -54
9 0 13 -10 11 -26 -3 -35 22 -57 44 -39 13 11 16 10 21 -8 7 -30 41 -39 58
-15 10 14 16 15 26 6 18 -18 59 4 56 31 -1 14 4 21 17 21 23 0 47 35 29 42
-18 6 -16 24 3 38 14 9 14 16 5 34 -7 12 -16 19 -21 16 -14 -9 -23 15 -11 29
8 10 6 18 -9 31 -16 15 -22 16 -35 5 -14 -11 -17 -10 -21 7 -8 30 -42 36 -55
11z m57 -70 c7 -5 17 -22 24 -38 24 -57 -38 -122 -98 -103 -38 13 -64 66 -50
105 17 48 85 68 124 36z"/>
<path d="M387 4569 c-28 -15 -45 -34 -63 -72 -32 -70 -31 -127 7 -245 47 -147
47 -146 102 -150 l47 -3 0 -39 c0 -21 -5 -42 -11 -46 -8 -5 -6 -10 5 -16 19
-10 23 -78 4 -78 -6 0 -4 -7 5 -18 20 -22 22 -68 5 -76 -10 -5 -10 -7 -1 -12
19 -8 28 -74 13 -84 -11 -7 -10 -11 3 -24 8 -9 18 -29 22 -45 7 -34 66 -91 95
-91 43 0 111 84 117 145 10 118 17 196 27 290 3 28 6 60 7 73 1 18 7 22 38 22
51 0 59 8 80 81 11 35 27 84 36 109 26 70 24 146 -5 204 -33 67 -66 89 -138
94 -45 3 -70 -1 -111 -19 l-53 -22 -44 21 c-57 28 -135 28 -187 1z m196 -20
c37 -20 38 -20 82 0 75 33 123 35 175 9 55 -28 80 -71 87 -146 4 -44 0 -71
-17 -117 -12 -33 -29 -86 -38 -117 l-15 -58 -58 0 -59 0 0 61 c0 95 -4 99
-114 99 -64 0 -97 -4 -104 -13 -6 -7 -12 -42 -14 -77 l-3 -65 -60 0 -60 0 -11
50 c-7 28 -19 67 -28 87 -9 21 -21 60 -27 88 -20 93 30 196 107 220 39 12 110
2 157 -21z m135 -359 c2 -42 9 -71 19 -83 10 -10 13 -21 7 -26 -9 -8 -234 -55
-239 -49 -1 2 -5 17 -8 34 -4 23 -1 35 14 47 15 13 19 30 19 82 l0 66 93 -3
92 -3 3 -65z m25 -172 c-3 -18 -7 -34 -7 -35 -1 -1 -52 -13 -114 -26 -72 -15
-112 -20 -113 -13 0 6 -2 21 -5 33 -3 19 3 23 49 32 28 6 81 17 117 25 36 8
68 14 72 15 4 1 5 -14 1 -31z"/>
<path d="M4387 4569 c-48 -25 -87 -102 -87 -171 0 -44 62 -257 83 -285 5 -7
29 -13 53 -13 l44 0 0 -38 c0 -21 -5 -43 -12 -50 -9 -9 -8 -12 5 -12 13 0 17
-9 17 -40 0 -22 -5 -40 -11 -40 -5 0 -3 -10 5 -22 19 -27 21 -65 4 -70 -9 -3
-8 -9 5 -22 20 -20 23 -72 5 -80 -10 -3 -9 -8 3 -15 9 -6 20 -26 23 -45 7 -38
65 -96 95 -96 47 0 118 92 115 150 -1 19 1 39 4 45 6 10 11 70 11 142 0 23 5
44 10 47 5 3 7 24 4 46 -3 23 -1 46 6 54 6 7 9 21 5 30 -5 13 1 16 32 16 22 0
45 4 52 8 7 5 21 37 31 73 11 35 27 84 36 109 26 69 24 157 -6 210 -34 61 -68
83 -137 88 -45 3 -70 -1 -111 -19 l-53 -22 -44 21 c-57 28 -135 28 -187 1z
m195 -20 c38 -19 38 -19 91 3 179 78 308 -65 236 -260 -12 -31 -28 -83 -37
-114 l-15 -58 -58 0 -59 0 0 61 c0 95 -4 99 -113 99 -59 0 -97 -4 -105 -12 -7
-7 -12 -37 -12 -67 0 -76 -6 -83 -71 -79 l-54 3 -11 50 c-7 28 -19 67 -28 87
-9 21 -21 60 -27 88 -20 93 30 196 107 220 39 12 110 2 156 -21z m136 -359 c2
-45 8 -69 19 -77 22 -17 10 -39 -24 -46 -15 -3 -68 -12 -117 -22 -48 -9 -89
-15 -91 -13 -1 2 -5 17 -8 35 -4 22 -2 33 8 37 10 3 15 19 15 43 0 21 3 55 6
75 l6 37 62 3 c33 2 75 1 91 -2 29 -6 30 -7 33 -70z m27 -172 c-4 -18 -8 -34
-10 -36 -1 -1 -52 -13 -113 -25 l-110 -23 -6 30 c-3 16 -5 31 -3 32 3 3 214
49 240 53 5 0 5 -14 2 -31z"/>
<path d="M1695 4550 c-3 -5 4 -28 16 -52 12 -23 17 -44 12 -45 -41 -14 -56
-52 -40 -99 7 -19 -11 -35 -158 -138 -143 -100 -169 -115 -195 -110 -35 8 -41
3 -215 -159 -190 -178 -225 -213 -225 -226 0 -23 122 -141 145 -141 13 0 39
19 66 48 24 26 108 116 187 200 119 127 143 157 140 179 -3 24 12 37 152 135
120 85 159 108 177 103 15 -3 44 5 83 25 55 28 60 33 59 63 0 42 -37 115 -70
140 -21 15 -31 17 -46 9 -17 -10 -22 -5 -41 34 -21 43 -35 53 -47 34z m144
-106 c32 -40 55 -109 43 -130 -8 -15 -13 -11 -35 32 -30 57 -36 52 -8 -6 13
-28 16 -42 8 -47 -6 -3 -12 -2 -14 4 -2 6 -11 19 -19 29 -15 18 -15 18 -9 -1
18 -51 17 -53 -14 -60 -39 -8 -46 -3 -76 55 -39 77 -35 96 28 125 65 31 71 31
96 -1z m-125 -160 c5 -18 -4 -29 -53 -65 -125 -91 -239 -169 -248 -169 -6 0
-18 9 -27 19 -17 18 -11 23 146 134 90 63 166 112 169 108 4 -3 10 -16 13 -27z
m-340 -234 l47 -51 -24 -28 c-63 -75 -352 -381 -360 -381 -17 0 -127 114 -127
132 0 27 9 23 57 -24 24 -23 43 -38 43 -33 0 6 -18 27 -41 49 -30 27 -38 41
-30 49 8 8 20 3 43 -19 l33 -29 -28 31 -28 31 63 60 c181 171 283 263 294 263
6 0 32 -23 58 -50z"/>
<path d="M5695 4550 c-3 -5 4 -28 16 -52 12 -23 17 -44 12 -45 -41 -14 -56
-52 -40 -99 7 -19 -11 -35 -157 -137 -149 -104 -169 -115 -199 -110 -31 5 -42
-3 -193 -144 -87 -81 -176 -163 -196 -182 -60 -54 -59 -64 13 -137 38 -39 72
-64 85 -64 14 0 78 61 205 197 151 162 184 203 185 228 1 27 16 40 154 138
120 84 159 107 177 102 15 -3 44 5 83 25 55 28 60 33 59 63 0 42 -37 115 -70
140 -21 15 -31 17 -46 9 -17 -10 -22 -5 -41 34 -21 43 -35 53 -47 34z m144
-106 c32 -40 55 -109 43 -130 -8 -15 -14 -11 -36 32 -26 47 -26 44 -4 -19 6
-15 7 -31 3 -35 -4 -4 -10 -2 -12 4 -2 6 -11 20 -19 30 -15 18 -15 18 -9 -1
18 -51 17 -53 -14 -60 -40 -9 -49 -2 -77 59 -36 78 -33 93 29 121 65 31 71 31
96 -1z m-125 -160 c6 -18 -5 -30 -61 -71 -125 -91 -231 -163 -240 -163 -6 0
-18 9 -27 19 -17 18 -11 23 146 134 90 63 166 112 169 108 4 -3 10 -16 13 -27z
m-346 -227 c23 -23 42 -50 42 -60 0 -16 -33 -53 -211 -242 -42 -44 -93 -99
-114 -122 -20 -24 -42 -43 -47 -43 -18 0 -128 113 -128 132 0 27 12 22 55 -22
21 -22 41 -37 44 -35 2 3 -15 24 -39 46 -32 30 -40 43 -32 51 9 9 20 4 44 -18
l33 -29 -28 31 -28 31 68 65 c156 149 278 258 288 258 6 0 30 -19 53 -43z"/>
<path d="M3250 4472 c-44 -43 -70 -118 -70 -197 l0 -52 -47 23 c-193 98 -396
-114 -295 -307 66 -127 228 -158 344 -68 36 29 37 29 48 9 6 -11 29 -29 51
-40 68 -35 137 -2 185 90 15 29 19 64 22 212 5 212 -7 269 -68 330 -33 33 -44
38 -85 38 -41 0 -52 -5 -85 -38z m141 11 c50 -30 77 -102 81 -213 l3 -95 -130
0 -130 0 2 25 c1 14 -1 19 -3 13 -12 -29 -24 -10 -24 37 0 183 96 295 201 233z
m-293 -235 c118 -30 186 -177 133 -293 -74 -164 -302 -167 -383 -6 -38 75 -34
157 11 212 l19 23 94 -99 c151 -160 202 -211 187 -190 -7 11 -45 54 -84 95
-39 41 -100 105 -135 143 -35 37 -59 67 -54 67 5 0 74 -67 154 -148 80 -82
125 -126 100 -98 -25 28 -87 95 -138 148 -51 53 -92 102 -92 107 0 18 71 48
118 50 13 1 44 -4 70 -11z m370 -170 l-2 -83 -5 75 c-5 61 -9 76 -23 78 -15 2
-18 -5 -18 -53 0 -30 5 -55 10 -55 6 0 10 10 11 23 0 12 3 16 6 9 3 -7 0 -26
-5 -42 -9 -25 -8 -30 9 -35 20 -7 27 -25 9 -25 -5 0 -9 -3 -9 -7 4 -28 -5 -49
-36 -80 -29 -29 -38 -33 -50 -23 -13 11 -14 10 -9 -4 4 -11 1 -16 -10 -16 -21
0 -22 53 -2 70 8 6 13 17 10 24 -3 9 8 12 43 10 33 -1 42 0 28 6 -11 4 -31 6
-44 3 -17 -4 -22 -3 -16 6 4 8 21 11 41 9 19 -2 34 0 34 4 0 4 -16 8 -37 8
-54 0 -92 -46 -87 -103 3 -34 2 -37 -5 -17 l-9 25 -1 -25 c-1 -25 -2 -24 -37
13 l-36 37 21 43 c24 50 27 108 7 165 l-14 40 114 1 114 2 -2 -83z"/>
<path d="M7250 4472 c-44 -43 -70 -118 -70 -197 l0 -52 -47 23 c-90 46 -194
25 -264 -53 -46 -51 -63 -100 -57 -169 10 -117 106 -204 227 -204 58 0 125 25
156 60 17 18 18 18 50 -14 72 -72 162 -47 218 59 19 35 22 60 25 217 5 212 -7
269 -68 330 -33 33 -44 38 -85 38 -41 0 -52 -5 -85 -38z m141 11 c50 -30 77
-102 81 -213 l3 -95 -130 0 -130 0 2 25 c1 14 -1 19 -3 13 -22 -53 -33 62 -14
145 12 51 50 111 82 129 32 18 75 16 109 -4z m-293 -235 c31 -8 59 -25 88 -54
144 -143 29 -382 -173 -361 -76 8 -129 45 -165 116 -38 75 -34 157 11 212 l19
23 98 -104 c55 -58 121 -127 148 -155 92 -94 -8 23 -133 155 -62 66 -109 120
-105 120 5 0 74 -67 154 -148 80 -82 127 -128 105 -103 -23 25 -84 92 -138
148 -53 56 -97 107 -97 112 0 18 71 48 118 50 13 1 44 -4 70 -11z m370 -170
l-2 -83 -5 75 c-5 61 -9 76 -23 78 -15 2 -18 -5 -18 -53 0 -30 5 -55 10 -55 6
0 10 -9 10 -20 0 -11 5 -29 12 -39 25 -40 -58 -141 -116 -141 -31 0 -89 38
-82 55 3 9 0 12 -9 9 -12 -5 -13 0 -6 35 1 2 7 -1 14 -7 10 -8 13 -6 13 8 0
10 -5 16 -10 13 -6 -4 -6 1 -1 13 16 36 17 104 2 148 l-15 44 114 1 114 2 -2
-83z"/>
<path d="M1855 4070 c-3 -5 -24 -10 -46 -10 l-39 0 0 -95 0 -95 35 0 c41 0 41
1 20 -107 -11 -59 -15 -154 -15 -385 l0 -308 35 0 35 0 0 293 c0 210 5 317 15
382 18 111 20 306 3 323 -15 15 -35 16 -43 2z m5 -685 c0 -229 -2 -265 -15
-265 -13 0 -15 36 -15 265 0 229 2 265 15 265 13 0 15 -36 15 -265z"/>
<path d="M5855 4070 c-3 -5 -24 -10 -46 -10 l-39 0 0 -95 0 -95 35 0 c41 0 41
1 20 -107 -11 -59 -15 -154 -15 -385 l0 -308 35 0 35 0 0 293 c0 210 5 317 15
382 18 111 20 306 3 323 -15 15 -35 16 -43 2z m5 -685 c0 -229 -2 -265 -15
-265 -13 0 -15 36 -15 265 0 229 2 265 15 265 13 0 15 -36 15 -265z"/>
<path d="M2276 3943 c-11 -26 15 -39 106 -51 l82 -12 82 -78 c45 -42 85 -88
90 -102 10 -32 572 -610 594 -610 18 0 84 65 93 92 4 13 -40 59 -176 181 -100
90 -238 214 -306 275 -68 62 -132 112 -142 112 -10 0 -33 15 -51 33 -18 18
-63 60 -99 93 -63 59 -68 61 -143 73 -103 15 -123 14 -130 -6z m723 -471 c154
-140 288 -261 297 -269 14 -15 12 -20 -25 -57 -46 -45 -70 -42 -26 4 36 37 21
40 -17 3 -30 -29 -40 -13 -11 19 9 10 12 18 7 18 -5 0 -15 -10 -23 -21 -12
-21 -20 -15 -188 152 -96 96 -215 218 -265 272 -89 96 -90 98 -72 118 10 11
23 18 30 17 6 -2 138 -117 293 -256z"/>
<path d="M6276 3943 c-11 -26 15 -39 106 -51 l83 -12 87 -87 c49 -48 88 -94
88 -101 0 -20 570 -602 590 -602 18 0 84 65 93 92 4 13 -40 59 -176 181 -100
90 -238 214 -306 275 -68 62 -131 112 -140 112 -9 0 -61 42 -117 94 l-101 93
-77 12 c-103 15 -123 14 -130 -6z m723 -471 c154 -140 288 -261 297 -269 14
-15 12 -20 -25 -57 -46 -45 -70 -42 -26 4 36 37 21 40 -17 3 -21 -20 -28 -23
-28 -11 0 9 7 21 15 28 9 7 13 15 10 18 -2 3 -12 -5 -22 -17 -18 -22 -18 -22
-243 206 -327 331 -307 308 -285 333 10 11 24 19 31 18 6 -2 138 -117 293
-256z"/>
<path d="M15 3930 c-10 -11 -15 -23 -11 -27 4 -5 12 0 17 10 9 15 27 17 139
17 l130 0 0 -381 c0 -338 -2 -380 -15 -369 -13 11 -15 65 -15 371 l0 359 -104
0 c-124 0 -140 -9 -113 -66 17 -34 24 -114 10 -114 -4 0 -17 10 -30 22 -19 17
-23 19 -23 5 0 -8 14 -26 31 -38 26 -18 33 -19 40 -8 13 21 11 96 -5 134 -8
18 -12 36 -8 39 3 3 45 6 94 6 l88 0 0 -337 c0 -325 -1 -336 -18 -320 -14 13
-38 17 -100 17 -44 0 -84 5 -87 10 -3 6 3 10 13 10 29 0 48 26 32 45 -14 17
-80 21 -80 5 0 -5 16 -10 35 -10 19 0 35 -4 35 -10 0 -5 -11 -10 -25 -10 -20
0 -25 -5 -25 -25 0 -24 2 -25 78 -26 42 -1 80 -1 84 0 10 1 242 -238 246 -253
2 -7 -11 -26 -29 -40 l-32 -27 -111 110 -111 111 -73 0 c-41 0 -72 -4 -72 -10
0 -5 7 -10 15 -10 12 0 15 -16 15 -85 0 -69 -3 -85 -15 -85 -8 0 -15 -4 -15
-10 0 -5 23 -10 51 -10 36 0 49 -4 47 -12 -3 -8 -22 -13 -46 -14 -23 0 -45 -4
-49 -8 -4 -4 19 -6 52 -4 56 3 60 4 60 28 0 21 -5 26 -32 28 l-33 3 0 85 0 84
44 0 c43 0 48 -3 154 -110 61 -60 113 -110 116 -110 14 0 86 74 86 89 0 9 -31
48 -70 86 l-70 69 -2 401 -3 400 -136 3 c-125 2 -137 1 -154 -18z"/>
<path d="M3833 3933 c-5 -12 24 -45 106 -125 61 -59 115 -108 120 -108 23 0
27 93 6 143 -8 19 -11 37 -8 41 4 3 46 6 95 6 l88 0 0 -337 c0 -321 -1 -335
-18 -320 -12 11 -41 17 -100 18 -46 2 -85 6 -88 11 -3 4 4 8 14 8 29 0 48 26
32 45 -10 12 -38 15 -136 15 l-124 0 0 -25 c0 -14 7 -28 15 -31 18 -7 20 -24
2 -24 -7 0 -82 70 -167 155 -85 85 -162 155 -170 155 -23 0 -80 -62 -80 -87 0
-31 331 -351 368 -355 26 -3 27 -4 27 -73 1 -89 -1 -95 -35 -95 -29 0 -43 -19
-34 -45 5 -13 33 -15 188 -13 l181 3 0 25 c0 21 -5 26 -32 28 l-33 3 0 85 0
84 44 0 c43 0 48 -3 154 -110 61 -60 113 -110 116 -110 14 0 86 74 86 89 0 9
-31 48 -70 86 l-70 69 -2 401 -3 400 -136 3 c-109 2 -138 0 -148 -12 -11 -13
-17 -13 -46 0 -49 20 -134 19 -142 -3z m147 -20 c30 -17 32 -17 44 0 11 15 31
17 140 17 l126 0 0 -381 c0 -338 -2 -380 -15 -369 -13 11 -15 64 -15 371 l0
358 -104 0 c-124 0 -140 -8 -113 -65 17 -35 23 -114 9 -114 -4 0 -52 45 -107
100 l-100 100 52 0 c30 0 64 -7 83 -17z m-320 -528 c125 -125 160 -155 182
-155 24 0 28 4 28 30 0 19 -5 30 -14 30 -8 0 -18 5 -21 10 -4 6 37 10 115 10
78 0 119 -4 115 -10 -3 -5 -15 -10 -26 -10 -14 0 -19 -7 -19 -25 0 -24 2 -25
78 -26 42 -1 80 -1 84 0 10 1 243 -238 246 -253 2 -7 -11 -26 -29 -40 l-32
-27 -111 110 -111 111 -190 0 -190 0 -169 169 -169 169 31 31 c17 17 34 31 39
31 4 0 78 -70 163 -155z m370 -350 l0 -85 -95 0 c-98 0 -132 16 -47 23 l47 3
-52 2 c-60 2 -72 21 -15 24 l37 1 -37 4 -38 4 0 55 0 54 100 0 100 0 0 -85z"/>
<path d="M3317 3652 c-15 -15 -27 -37 -27 -47 0 -23 78 -105 100 -105 20 0 80
61 80 81 0 22 -82 99 -106 99 -11 0 -32 -13 -47 -28z"/>
<path d="M7317 3652 c-15 -15 -27 -37 -27 -47 0 -23 78 -105 100 -105 20 0 80
61 80 81 0 24 -78 99 -103 99 -13 0 -35 -13 -50 -28z"/>
<path d="M1323 3606 c-165 -54 -248 -221 -197 -397 28 -96 166 -328 262 -438
l38 -44 66 89 c94 127 172 255 209 343 75 180 14 361 -146 432 -62 27 -172 35
-232 15z m229 -25 c64 -27 123 -90 149 -159 44 -117 15 -237 -101 -427 -49
-81 -169 -245 -179 -245 -3 0 -44 54 -91 120 -197 277 -244 423 -182 562 66
151 246 217 404 149z"/>
<path d="M1335 3555 c-101 -38 -165 -130 -165 -238 0 -77 18 -123 68 -179 50
-56 102 -78 182 -78 273 0 358 357 115 482 -51 27 -147 33 -200 13z m216 -42
c24 -16 43 -35 41 -42 -1 -7 2 -10 8 -6 18 11 60 -95 60 -153 0 -47 -30 -142
-46 -142 -3 0 -2 5 2 12 4 7 3 8 -5 4 -6 -4 -9 -12 -5 -17 7 -13 -30 -44 -86
-71 -58 -28 -156 -31 -175 -5 -13 19 -30 24 -19 6 4 -7 -7 -4 -25 7 -34 20
-35 22 -21 44 8 12 10 12 10 1 0 -8 2 -12 5 -9 3 3 1 16 -4 29 -8 19 -10 20
-10 5 -1 -15 -4 -16 -16 -6 -8 7 -12 17 -8 23 3 6 1 7 -5 3 -15 -9 -16 -37 -1
-33 6 1 14 -4 16 -10 9 -25 -17 -12 -42 21 -17 23 -30 57 -37 100 -10 61 -9
68 8 82 10 9 13 13 7 9 -33 -16 14 87 56 123 54 48 101 63 177 59 59 -3 79 -9
115 -34z"/>
<path d="M1290 3496 c0 -8 -7 -16 -15 -20 -8 -3 -15 -11 -15 -18 0 -9 3 -9 10
2 15 24 20 6 8 -28 -10 -25 -9 -41 0 -74 7 -24 19 -76 27 -115 14 -74 41 -143
55 -143 5 0 17 -3 27 -6 11 -4 14 -3 7 3 -8 6 -5 22 10 57 l22 50 13 -44 c10
-33 10 -45 1 -50 -9 -5 -9 -9 -1 -14 6 -4 11 -3 11 2 0 6 9 8 20 5 14 -4 23 2
31 21 7 14 15 24 18 22 3 -2 7 6 7 17 3 39 25 150 33 166 5 9 11 43 13 76 3
33 3 55 1 48 -2 -6 -14 -1 -29 14 -22 21 -31 24 -67 19 -59 -9 -67 -8 -114 2
-23 5 -40 6 -38 2 3 -5 -2 -11 -11 -14 -22 -9 -23 -8 -17 14 3 11 3 20 -1 20
-3 0 -6 -6 -6 -14z m130 -36 c8 0 35 2 59 3 37 2 47 -2 64 -26 19 -24 20 -31
9 -70 -7 -23 -19 -76 -28 -117 -9 -41 -23 -88 -32 -105 l-15 -30 -14 35 c-32
83 -44 86 -72 18 l-22 -53 -15 28 c-16 30 -53 177 -61 245 -7 61 16 86 72 78
22 -4 47 -6 55 -6z"/>
<path d="M5315 3603 c-161 -58 -239 -222 -189 -394 28 -96 166 -328 262 -438
l38 -44 66 89 c94 127 172 255 209 343 75 180 14 361 -146 432 -68 30 -174 35
-240 12z m237 -22 c154 -66 212 -260 130 -436 -18 -37 -53 -102 -78 -144 -51
-84 -172 -251 -183 -251 -3 0 -44 54 -91 120 -197 277 -244 423 -182 562 66
151 246 217 404 149z"/>
<path d="M5335 3555 c-101 -38 -165 -130 -165 -238 0 -77 18 -123 68 -179 50
-56 102 -78 182 -78 273 0 358 357 115 482 -51 27 -147 33 -200 13z m216 -42
c24 -16 43 -35 41 -42 -1 -7 2 -10 8 -6 18 11 60 -95 60 -152 0 -59 -26 -136
-43 -126 -6 3 -7 1 -3 -5 6 -10 -55 -76 -72 -78 -4 0 -20 -7 -37 -14 -46 -20
-144 -19 -160 3 -13 19 -30 24 -19 6 4 -7 -7 -4 -25 7 -34 20 -35 22 -21 44 8
12 10 12 10 1 0 -8 2 -12 5 -9 3 3 1 16 -4 29 -8 19 -10 20 -10 5 -1 -15 -4
-16 -16 -6 -8 7 -12 17 -8 23 3 6 1 7 -5 3 -15 -9 -16 -37 -1 -33 6 1 14 -4
16 -10 9 -25 -17 -12 -42 21 -29 38 -50 132 -39 179 17 82 63 140 139 178 62
31 167 22 226 -18z"/>
<path d="M5290 3496 c0 -8 -7 -16 -15 -20 -8 -3 -15 -11 -15 -18 0 -9 3 -9 10
2 15 24 20 6 8 -28 -10 -25 -9 -41 0 -74 7 -24 19 -76 27 -115 17 -88 40 -139
66 -146 10 -3 17 -2 15 1 -2 4 6 29 18 56 l22 50 13 -45 c19 -63 43 -77 63
-34 6 13 14 23 17 21 3 -2 7 6 7 17 3 41 25 150 34 168 6 10 12 44 13 76 2 32
2 53 0 46 -2 -6 -14 -1 -29 14 -22 21 -31 24 -67 19 -59 -9 -67 -8 -114 2 -23
5 -40 6 -38 2 3 -5 -2 -11 -11 -14 -22 -9 -23 -8 -17 14 3 11 3 20 -1 20 -3 0
-6 -6 -6 -14z m130 -36 c8 0 35 2 59 3 37 2 47 -2 64 -26 19 -24 20 -31 9 -70
-7 -23 -19 -76 -28 -117 -9 -41 -23 -88 -32 -105 l-15 -30 -14 35 c-32 83 -44
86 -72 18 l-22 -53 -15 28 c-16 30 -53 177 -61 245 -7 61 16 86 72 78 22 -4
47 -6 55 -6z"/>
<path d="M7452 3527 c-18 -18 -32 -42 -32 -54 0 -31 331 -351 368 -355 27 -3
27 -3 27 -83 l0 -80 -32 -3 c-32 -3 -47 -21 -37 -47 5 -12 29 -15 133 -14 146
2 142 7 -8 11 -73 2 -106 7 -109 16 -3 9 25 12 117 12 74 0 121 4 121 10 0 6
-36 10 -87 10 -91 0 -107 15 -23 23 l45 4 -52 1 c-61 2 -71 19 -15 25 l37 4
-37 1 -38 2 0 55 0 55 85 0 c50 0 85 4 85 10 0 6 -46 10 -118 10 l-117 0 -169
169 -169 169 31 31 c17 17 34 31 39 31 4 0 78 -70 163 -155 125 -125 160 -155
182 -155 24 0 28 4 28 29 0 21 -6 31 -22 37 -16 5 4 9 65 11 115 5 113 23 -3
23 -90 0 -90 0 -90 -25 0 -14 7 -28 15 -31 18 -7 20 -24 2 -24 -7 0 -82 70
-167 155 -85 85 -162 155 -170 155 -9 0 -30 -15 -48 -33z"/>
<path d="M2382 3452 c-79 -2 -104 -6 -109 -17 -4 -12 -27 -15 -109 -15 l-104
0 0 -434 c0 -386 2 -435 16 -440 9 -3 163 -6 344 -6 265 0 330 3 339 14 8 9
10 133 9 437 l-3 424 -100 3 c-64 2 -105 7 -115 16 -21 18 -49 21 -168 18z
m153 -32 c3 -11 3 -29 0 -40 -6 -19 -13 -20 -122 -18 -82 2 -118 7 -121 16 -2
8 9 13 35 14 l38 1 -40 6 -40 5 55 6 55 7 -52 1 c-29 1 -53 7 -53 12 0 6 46
10 119 10 111 0 120 -1 126 -20z m170 -435 l0 -370 -289 -3 c-225 -2 -291 1
-298 10 -11 19 -10 712 2 724 6 6 124 9 297 9 l288 0 0 -370z m13 -415 c5 -13
3 -13 -13 0 -10 8 -16 10 -12 4 5 -9 -65 -12 -273 -13 -251 -2 -279 0 -274 14
6 14 39 15 287 13 239 -3 281 -5 285 -18z"/>
<path d="M2295 3266 c-16 -12 -17 -16 -6 -30 12 -14 38 -16 200 -14 181 3 186
4 189 24 4 30 -17 34 -204 34 -121 0 -165 -3 -179 -14z"/>
<path d="M2293 3139 c-6 -6 -9 -18 -6 -25 4 -11 44 -14 199 -14 184 0 194 1
194 19 0 10 -7 22 -16 25 -29 11 -359 7 -371 -5z"/>
<path d="M2287 2997 c-13 -34 6 -37 199 -35 181 3 189 4 189 23 0 19 -8 20
-191 23 -154 2 -193 0 -197 -11z"/>
<path d="M2287 2867 c-13 -34 6 -37 199 -35 181 3 189 4 189 23 0 19 -8 20
-191 23 -154 2 -193 0 -197 -11z"/>
<path d="M2285 2740 c-4 -6 -1 -18 6 -26 10 -12 44 -14 198 -12 184 3 186 3
189 26 l3 22 -195 0 c-124 0 -197 -4 -201 -10z"/>
<path d="M6382 3452 c-79 -2 -104 -6 -109 -17 -4 -12 -27 -15 -109 -15 l-104
0 0 -434 c0 -386 2 -435 16 -440 9 -3 163 -6 344 -6 265 0 330 3 339 14 8 9
10 133 9 437 l-3 424 -100 3 c-64 2 -105 7 -115 16 -21 18 -49 21 -168 18z
m154 -27 c4 -8 3 -26 0 -40 l-7 -26 -116 3 c-82 2 -118 7 -121 16 -2 8 9 13
35 14 l38 1 -40 6 -40 5 55 6 55 7 -52 1 c-29 1 -53 7 -53 12 0 6 47 10 120
10 98 0 122 -3 126 -15z m-276 -36 c13 -9 13 -10 0 -8 -8 1 -43 1 -77 0 -100
-2 -94 24 -93 -403 1 -245 5 -374 12 -382 7 -8 96 -10 306 -9 243 2 299 6 311
17 20 21 19 755 -1 768 -7 4 -46 8 -85 8 -43 0 -73 4 -73 10 0 7 36 10 95 9
l95 -1 0 -414 c0 -258 -4 -415 -10 -419 -5 -3 -19 -1 -31 6 -13 7 -19 7 -15 1
4 -8 -82 -11 -273 -12 -217 0 -280 2 -285 12 -5 10 -7 10 -12 1 -3 -7 -14 -13
-25 -13 -18 0 -19 13 -19 420 l0 420 83 0 c45 0 89 -5 97 -11z m445 -404 l0
-370 -289 -3 c-225 -2 -291 1 -298 10 -11 19 -10 712 2 724 6 6 124 9 297 9
l288 0 0 -370z"/>
<path d="M6295 3266 c-16 -12 -17 -16 -6 -30 12 -14 38 -16 200 -14 181 3 186
4 189 24 4 29 -26 34 -212 34 -114 0 -157 -3 -171 -14z"/>
<path d="M6290 3135 c-25 -30 0 -35 196 -35 184 0 194 1 194 19 0 10 -7 22
-16 25 -9 3 -93 6 -189 6 -139 0 -175 -3 -185 -15z"/>
<path d="M6287 2997 c-13 -34 6 -37 199 -35 181 3 189 4 189 23 0 19 -8 20
-191 23 -154 2 -193 0 -197 -11z"/>
<path d="M6287 2867 c-13 -34 6 -37 199 -35 181 3 189 4 189 23 0 19 -8 20
-191 23 -154 2 -193 0 -197 -11z"/>
<path d="M6285 2740 c-4 -6 -1 -18 6 -26 10 -12 44 -14 198 -12 184 3 186 3
189 26 l3 22 -195 0 c-124 0 -197 -4 -201 -10z"/>
<path d="M644 3220 c-69 -35 -85 -103 -34 -150 40 -37 100 -50 222 -48 57 1
79 3 51 5 l-53 4 0 100 0 99 65 0 c71 0 118 -17 147 -54 37 -45 7 -104 -67
-132 l-40 -15 35 6 c42 6 100 63 100 98 0 33 -25 64 -70 87 -34 17 -59 20
-177 20 -119 0 -144 -3 -179 -20z m166 -64 c0 -72 -1 -76 -25 -82 -14 -3 -36
-4 -50 -2 -13 3 -22 1 -19 -3 3 -5 -2 -9 -10 -9 -9 0 -16 -4 -16 -10 0 -17
-81 32 -89 53 -9 25 -2 69 10 61 5 -3 6 2 3 10 -10 26 56 51 144 55 l52 2 0
-75z"/>
<path d="M4644 3220 c-69 -35 -85 -103 -34 -150 40 -37 95 -49 220 -47 58 0
81 2 53 4 l-53 4 0 100 0 99 65 0 c71 0 118 -17 147 -54 37 -45 7 -104 -67
-132 l-40 -15 35 6 c42 6 100 63 100 98 0 33 -25 64 -70 87 -34 17 -59 20
-177 20 -119 0 -144 -3 -179 -20z m166 -65 c0 -83 6 -76 -82 -90 -21 -3 -38
-10 -38 -15 0 -16 -83 34 -90 55 -4 11 -3 35 2 53 12 44 70 71 151 72 l57 0 0
-75z"/>
<path d="M3056 2870 c-16 -5 -42 -22 -59 -37 -74 -70 -89 -191 -38 -318 17
-41 39 -127 51 -192 26 -149 44 -211 82 -295 47 -103 74 -102 114 5 14 40 37
96 50 126 29 64 41 60 73 -24 12 -30 30 -80 42 -110 36 -92 62 -97 102 -18 36
70 65 171 89 307 11 67 33 153 49 191 38 96 45 159 25 228 -31 105 -111 157
-221 142 -27 -3 -67 -16 -87 -28 l-38 -21 -48 23 c-52 26 -141 36 -186 21z
m178 -34 c52 -25 61 -24 126 9 42 22 132 19 181 -6 31 -15 46 -33 65 -72 32
-69 31 -141 -2 -232 -26 -71 -37 -108 -48 -157 -5 -24 -11 -28 -40 -28 -18 0
-38 6 -44 13 -5 6 -20 73 -32 147 -12 74 -24 143 -26 153 -5 15 -20 17 -130
17 -68 0 -124 -3 -124 -6 0 -18 -52 -309 -56 -316 -3 -4 -23 -8 -44 -8 -37 0
-38 1 -45 43 -4 23 -20 74 -36 114 -49 123 -48 215 3 286 51 71 157 89 252 43z
m166 -178 c3 -44 51 -303 58 -310 5 -5 28 -12 50 -15 40 -5 41 -7 36 -37 -20
-113 -70 -273 -98 -311 -23 -32 -42 -10 -80 97 -20 56 -46 114 -57 128 l-19
25 -24 -27 c-13 -15 -32 -51 -41 -80 -30 -91 -63 -158 -78 -158 -20 0 -64 102
-93 216 -33 134 -33 140 16 148 22 3 43 14 49 24 5 9 19 81 32 160 l22 142
114 0 c62 0 113 -1 113 -2z"/>
<path d="M7056 2870 c-16 -5 -42 -22 -59 -37 -74 -70 -89 -191 -38 -318 16
-40 41 -135 55 -212 26 -143 50 -224 87 -299 39 -78 68 -70 105 29 14 40 37
96 50 126 29 64 41 60 74 -27 73 -192 85 -207 125 -158 34 42 81 191 106 337
12 68 34 156 50 196 38 97 45 157 25 226 -31 105 -111 157 -221 142 -27 -3
-67 -16 -87 -28 l-38 -21 -48 23 c-52 26 -141 36 -186 21z m178 -34 c52 -25
61 -24 126 9 42 22 132 19 179 -5 28 -14 46 -34 65 -72 34 -69 34 -139 0 -233
-26 -71 -37 -108 -48 -157 -5 -24 -11 -28 -40 -28 -18 0 -38 6 -44 13 -5 6
-20 73 -32 147 -12 74 -24 143 -26 153 -5 15 -20 17 -130 17 -68 0 -124 -3
-124 -6 0 -18 -52 -309 -56 -316 -3 -4 -23 -8 -44 -8 -37 0 -38 1 -45 43 -4
23 -20 74 -36 114 -49 123 -48 215 3 286 51 71 157 89 252 43z m166 -178 c3
-44 51 -303 58 -310 5 -5 28 -12 50 -15 40 -5 41 -7 36 -37 -20 -113 -70 -273
-98 -311 -23 -32 -42 -10 -80 97 -20 56 -46 114 -57 128 l-19 25 -25 -30 c-14
-16 -32 -52 -41 -80 -29 -88 -63 -155 -77 -155 -20 0 -64 102 -93 216 -33 134
-33 140 16 148 22 3 43 14 49 24 5 9 19 81 32 160 l22 142 114 0 c62 0 113 -1
113 -2z"/>
<path d="M255 2772 l-160 -47 0 -205 c1 -232 10 -275 80 -370 30 -40 170 -154
253 -204 20 -12 193 107 257 175 89 97 99 134 103 386 l3 213 -23 10 c-42 18
-310 90 -332 89 -11 0 -93 -22 -181 -47z m300 3 c39 -10 73 -22 76 -28 4 -5
12 -6 18 -3 6 4 11 4 11 -1 0 -4 12 -9 28 -9 15 -1 39 -7 55 -13 l27 -11 0
-184 c0 -180 -12 -286 -31 -286 -6 0 -8 -4 -5 -9 8 -13 -56 -104 -83 -117 -12
-6 -21 -14 -19 -17 4 -7 -76 -67 -122 -93 -19 -10 -43 -25 -52 -32 -14 -12
-23 -9 -63 20 -26 18 -61 42 -79 53 -35 21 -136 115 -136 125 0 14 33 6 37 -9
2 -9 22 -29 44 -44 21 -16 37 -33 33 -38 -3 -5 -2 -9 3 -8 24 4 43 -2 37 -13
-4 -6 -3 -8 4 -4 5 3 12 3 14 -1 5 -12 83 -63 95 -63 6 0 16 7 23 15 7 8 16
12 21 9 5 -3 9 -1 9 5 0 5 31 30 69 55 38 24 72 49 75 55 4 6 12 8 18 5 7 -5
9 -1 5 9 -4 10 1 21 12 29 10 7 27 36 37 65 10 28 21 50 24 48 4 -2 8 89 9
203 l2 208 -154 42 -154 43 -59 -17 c-32 -9 -71 -17 -86 -18 -14 0 -24 -4 -23
-7 2 -3 -19 -11 -48 -18 -29 -7 -60 -15 -69 -17 -28 -8 -33 -47 -27 -216 5
-133 10 -173 27 -217 12 -30 19 -58 16 -63 -3 -5 0 -7 7 -6 6 2 13 -2 16 -9 2
-6 -4 -10 -14 -9 -11 2 -27 24 -43 62 -24 56 -25 68 -25 264 l0 204 130 36
c72 20 137 39 145 43 21 9 83 2 165 -18z m35 -54 l135 -38 0 -194 c0 -183 -1
-197 -23 -240 -35 -71 -83 -121 -175 -184 l-84 -56 -80 55 c-97 67 -147 120
-182 195 -24 53 -26 66 -29 238 l-4 182 69 20 c136 40 208 60 223 60 8 0 76
-17 150 -38z"/>
<path d="M287 2650 c-45 -28 -61 -124 -32 -197 8 -21 23 -81 34 -135 20 -99
53 -188 69 -188 16 0 29 22 52 83 12 32 27 56 33 54 6 -2 22 -32 37 -68 15
-38 31 -64 40 -64 21 0 57 78 71 155 6 36 22 101 35 145 29 97 30 130 4 172
-27 45 -53 56 -114 49 -62 -8 -85 -8 -156 -1 -31 3 -63 1 -73 -5z m123 -15
c27 -14 33 -14 60 0 64 33 131 13 154 -47 20 -49 20 -57 -4 -124 -10 -31 -26
-95 -35 -142 -19 -98 -49 -176 -67 -170 -6 2 -20 29 -30 58 -10 30 -25 61 -34
70 -14 13 -17 13 -29 -4 -8 -10 -22 -42 -31 -70 -9 -28 -20 -55 -24 -60 -15
-15 -49 69 -66 160 -8 49 -24 113 -35 142 -31 86 -19 163 28 191 26 15 80 13
113 -4z"/>
<path d="M4255 2772 l-160 -47 0 -205 c1 -232 10 -275 80 -370 30 -40 170
-154 253 -204 20 -12 193 107 257 175 89 97 99 134 103 386 l3 213 -23 10
c-42 18 -310 90 -332 89 -11 0 -93 -22 -181 -47z m300 3 c39 -10 73 -22 76
-28 4 -5 12 -6 19 -2 8 5 11 4 7 -1 -3 -6 9 -10 26 -11 18 0 44 -5 60 -11 l27
-12 0 -184 c0 -184 -12 -286 -32 -286 -6 0 -9 -3 -5 -6 11 -12 -24 -66 -77
-118 -48 -48 -155 -126 -172 -126 -4 0 -15 -7 -25 -16 -16 -15 -21 -13 -64 18
-26 18 -61 42 -79 53 -35 21 -136 115 -136 125 0 14 33 6 37 -9 2 -9 22 -29
44 -44 21 -16 37 -33 33 -38 -3 -5 -2 -9 3 -8 4 1 11 0 16 -1 4 -1 12 -3 17
-4 6 0 11 -5 13 -11 1 -5 16 -18 32 -27 78 -43 74 -42 95 -23 11 10 20 15 20
12 0 -3 11 5 25 19 15 15 32 23 41 20 8 -3 13 -2 10 3 -7 11 42 44 54 36 5 -3
7 1 4 9 -6 16 29 40 41 28 4 -4 6 0 4 8 -3 20 11 51 21 45 4 -2 15 20 25 50
10 30 22 52 25 50 4 -2 8 89 9 203 l2 208 -154 42 -154 43 -59 -17 c-32 -9
-71 -17 -86 -18 -14 0 -24 -4 -23 -7 2 -3 -19 -11 -48 -18 -29 -7 -60 -15 -69
-17 -28 -8 -33 -47 -27 -216 5 -133 10 -173 27 -217 12 -30 19 -58 16 -63 -3
-5 0 -7 7 -6 6 2 13 -2 16 -8 2 -6 -4 -11 -13 -11 -21 0 -49 62 -64 142 -6 35
-10 130 -8 225 l3 165 65 17 c36 9 101 28 145 41 88 28 124 28 230 2z m35 -54
l135 -38 0 -194 c0 -183 -1 -197 -23 -240 -35 -71 -83 -121 -175 -184 l-84
-56 -80 55 c-97 67 -147 120 -182 195 -24 53 -26 66 -29 238 l-4 182 69 20
c133 39 208 60 223 60 8 1 76 -16 150 -38z"/>
<path d="M4287 2650 c-45 -28 -61 -124 -32 -197 8 -21 23 -81 34 -135 20 -99
53 -188 69 -188 16 0 29 22 52 83 12 32 27 56 33 54 6 -2 22 -32 37 -68 15
-38 31 -64 40 -64 23 0 57 81 79 190 11 55 27 118 35 140 21 55 19 104 -4 142
-27 45 -53 56 -114 49 -62 -8 -85 -8 -156 -1 -31 3 -63 1 -73 -5z m123 -15
c27 -14 33 -14 60 0 64 33 131 13 154 -47 20 -49 20 -57 -4 -124 -10 -31 -26
-95 -35 -142 -19 -98 -49 -176 -67 -170 -6 2 -20 29 -30 58 -10 30 -25 61 -34
70 -14 13 -17 13 -29 -4 -8 -10 -22 -42 -31 -70 -9 -28 -20 -55 -24 -60 -15
-15 -49 69 -65 160 -9 49 -25 112 -36 139 -32 83 -19 166 28 194 26 15 80 13
113 -4z"/>
<path d="M1192 2704 c-13 -8 -22 -26 -22 -40 0 -19 -5 -24 -24 -24 -14 0 -27
-4 -31 -9 -7 -13 -8 -618 0 -631 7 -11 781 -15 809 -4 14 5 16 43 16 319 0
337 2 325 -51 325 -13 0 -19 7 -19 23 0 27 -10 41 -32 50 -23 8 -48 -18 -48
-49 l0 -24 -270 0 -270 0 0 30 c0 38 -28 55 -58 34z m-22 -96 c0 -50 42 -75
73 -43 10 10 43 15 108 18 l94 3 -100 4 -100 4 140 6 140 6 -138 2 c-89 1
-136 6 -132 12 4 6 102 9 268 7 l262 -2 5 -29 c10 -57 71 -61 78 -5 5 33 16
42 41 34 21 -6 21 -10 21 -301 l0 -294 -142 -2 -143 -2 145 -6 c333 -12 28
-18 -602 -11 l-68 1 0 304 c0 235 3 305 13 309 25 8 37 3 37 -15z"/>
<path d="M1160 2500 c0 -20 7 -20 365 -20 358 0 365 0 365 20 0 20 -7 20 -365
20 -358 0 -365 0 -365 -20z"/>
<path d="M5192 2704 c-13 -8 -22 -26 -22 -40 0 -19 -5 -24 -24 -24 -14 0 -27
-4 -31 -9 -7 -13 -8 -618 0 -631 7 -11 781 -15 809 -4 14 5 16 43 16 319 0
337 2 325 -51 325 -13 0 -19 7 -19 23 0 27 -10 41 -32 50 -23 8 -48 -18 -48
-49 l0 -24 -270 0 -270 0 0 30 c0 38 -28 55 -58 34z m-22 -96 c0 -50 42 -75
73 -43 10 10 43 15 108 18 l94 3 -100 4 -100 4 140 6 140 6 -138 2 c-89 1
-136 6 -132 12 4 6 102 9 268 7 l262 -2 5 -29 c10 -60 70 -60 80 0 5 28 10 30
50 25 6 -1 10 -107 10 -296 l0 -295 -142 -2 -143 -2 145 -6 c80 -3 138 -8 130
-11 -13 -5 -148 -5 -732 0 l-68 1 0 304 c0 235 3 305 13 309 25 8 37 3 37 -15z"/>
<path d="M5160 2500 c0 -20 7 -20 365 -20 358 0 365 0 365 20 0 20 -7 20 -365
20 -358 0 -365 0 -365 -20z"/>
<path d="M2435 2051 c-27 -11 -52 -41 -57 -66 -3 -18 -13 -20 -111 -25 -81 -4
-110 -9 -117 -20 -6 -8 -10 -126 -10 -266 0 -233 1 -252 19 -268 17 -15 55
-17 407 -16 295 0 390 3 396 13 9 14 11 518 2 541 -5 13 -25 16 -120 16 -114
0 -114 0 -114 24 0 13 -9 34 -19 47 -18 23 -27 24 -138 26 -65 2 -127 -1 -138
-6z m513 -343 l2 -228 -49 0 c-50 0 -77 -14 -44 -23 10 -3 -3 -5 -29 -4 -47 1
-68 -7 -55 -19 4 -4 43 -6 87 -5 48 1 80 -2 80 -8 0 -13 -17 -23 -23 -14 -3 5
-165 6 -361 3 -196 -3 -361 -3 -366 -2 -6 2 -8 8 -5 13 4 5 -1 6 -9 3 -14 -5
-16 20 -16 220 l0 226 44 0 c24 0 52 3 62 7 16 6 16 7 -2 14 -14 6 -9 8 19 8
23 1 36 -3 32 -9 -11 -18 1 -11 21 13 l20 22 -101 -3 c-71 -2 -96 0 -85 7 10
7 146 10 395 8 l380 -2 3 -227z"/>
<path d="M2500 1868 c-19 -5 -43 -17 -52 -25 -9 -8 -22 -12 -28 -8 -6 3 -9 3
-8 -2 2 -4 -8 -25 -21 -47 -43 -68 -38 -173 10 -235 11 -13 19 -21 19 -17 0 4
9 -2 21 -13 34 -31 101 -45 155 -32 25 7 56 19 69 27 13 9 30 12 37 8 10 -5
11 -4 1 7 -11 10 -8 18 13 40 14 15 26 30 25 33 -4 23 0 46 8 42 5 -3 5 15 0
40 -5 26 -6 50 -3 55 3 5 0 9 -7 9 -7 0 -9 3 -6 7 4 3 0 14 -9 24 -9 10 -14
25 -11 33 4 9 1 18 -5 22 -6 4 -8 3 -4 -4 3 -6 2 -13 -3 -16 -5 -3 -11 0 -14
7 -14 36 -125 63 -187 45z m128 -32 c60 -32 102 -96 102 -158 0 -43 -36 -114
-68 -137 -124 -88 -290 -1 -279 146 4 63 40 122 88 146 42 20 121 22 157 3z"/>
<path d="M2519 1798 c-1 -7 -1 -28 0 -45 2 -32 0 -33 -36 -33 -51 0 -65 -11
-61 -46 3 -26 7 -29 48 -34 44 -5 45 -6 45 -39 0 -38 20 -65 42 -57 8 3 19 6
24 6 5 0 9 20 9 44 l0 45 48 3 c44 3 47 5 50 32 4 35 -10 46 -60 46 l-38 0 0
45 c0 45 0 45 -35 45 -21 0 -36 -5 -36 -12z"/>
<path d="M6435 2051 c-27 -11 -52 -41 -57 -66 -3 -18 -13 -20 -111 -25 -81 -4
-110 -9 -117 -20 -6 -8 -10 -126 -10 -266 0 -233 1 -252 19 -268 17 -15 55
-17 407 -16 295 0 390 3 396 13 9 14 11 518 2 541 -5 13 -25 16 -120 16 -114
0 -114 0 -114 24 0 13 -9 34 -19 47 -18 23 -27 24 -138 26 -65 2 -127 -1 -138
-6z m513 -343 l2 -228 -49 0 c-50 0 -77 -14 -44 -23 10 -3 -6 -5 -34 -6 -29 0
-53 -5 -53 -11 0 -12 1 -12 104 -10 72 1 78 0 66 -15 -7 -9 -17 -12 -21 -8 -4
4 -167 6 -361 3 -202 -3 -363 -1 -375 4 -23 9 -23 10 -23 233 l0 223 44 0 c24
0 52 3 62 7 16 6 16 7 -2 14 -14 6 -9 8 18 8 31 1 36 -2 31 -16 -3 -10 3 -7
13 7 10 14 21 27 25 30 4 3 -39 4 -94 2 -73 -2 -98 0 -87 7 10 7 146 10 395 8
l380 -2 3 -227z"/>
<path d="M6518 1882 c11 -7 5 -11 -21 -16 -19 -4 -41 -13 -48 -22 -7 -8 -18
-13 -26 -10 -8 3 -12 2 -9 -3 3 -4 -3 -17 -13 -27 -46 -49 -54 -153 -17 -224
12 -25 26 -44 30 -42 4 2 15 -5 24 -16 21 -23 94 -42 149 -39 22 1 39 4 37 6
-8 8 68 41 79 34 7 -4 5 2 -3 12 -14 17 -13 18 3 12 11 -4 16 -3 12 4 -4 5 -1
17 6 25 17 20 20 35 23 112 2 34 -1 62 -6 62 -5 0 -7 4 -4 9 3 4 -3 16 -14 26
-16 15 -18 21 -8 34 7 9 8 13 4 9 -5 -4 -16 -2 -24 5 -13 10 -14 9 -7 -3 4 -8
-3 -5 -16 6 -25 23 -55 35 -98 39 -14 1 -35 5 -46 10 -14 5 -16 4 -7 -3z m130
-59 c77 -50 101 -137 61 -220 -80 -165 -328 -106 -329 78 0 57 42 128 91 152
54 26 127 22 177 -10z"/>
<path d="M6517 1798 c-2 -7 -3 -28 -2 -45 3 -32 1 -33 -34 -33 -49 0 -63 -12
-59 -46 3 -26 7 -29 48 -34 43 -5 45 -6 47 -40 1 -19 2 -38 2 -41 1 -10 41
-18 57 -12 9 3 14 21 14 49 l0 43 48 3 c44 3 47 5 50 32 4 35 -10 46 -60 46
l-38 0 0 45 c0 44 0 45 -34 45 -19 0 -36 -6 -39 -12z"/>
<path d="M3744 1986 c-62 -28 -97 -104 -76 -166 11 -29 8 -32 -76 -115 -48
-46 -94 -85 -103 -85 -17 0 -57 -35 -354 -310 -98 -91 -198 -182 -222 -203
-24 -22 -43 -48 -43 -59 0 -23 70 -98 92 -98 12 0 124 113 491 496 48 50 87
98 87 106 0 8 41 56 92 106 74 73 95 89 109 81 27 -14 87 -11 120 6 83 43 91
179 14 229 -35 23 -95 28 -131 12z m106 -21 c89 -46 79 -171 -16 -211 -29 -12
-40 -12 -76 1 l-43 14 -92 -91 c-51 -51 -96 -89 -100 -85 -4 4 35 50 87 102
89 90 93 95 82 120 -46 101 59 201 158 150z m-341 -388 l22 -24 -281 -291
c-155 -161 -284 -292 -288 -292 -13 0 -72 65 -72 79 0 10 10 6 30 -14 34 -33
41 -23 8 12 -26 28 -16 43 12 18 23 -21 27 -10 5 15 -13 15 11 40 258 268 149
138 275 252 278 252 3 0 15 -11 28 -23z"/>
<path d="M3752 1955 c-39 -17 -66 -72 -57 -116 4 -16 20 -40 37 -54 68 -57
168 -9 168 82 0 38 -25 72 -66 89 -40 17 -41 17 -82 -1z m87 -20 c33 -16 41
-33 41 -79 0 -38 -30 -72 -47 -55 -6 6 -21 9 -34 6 -22 -4 -22 -4 4 -6 29 -1
38 -20 10 -22 -53 -4 -99 22 -88 48 2 8 0 11 -5 8 -11 -7 -13 27 -4 61 6 23
50 53 77 54 10 0 31 -7 46 -15z"/>
<path d="M7744 1986 c-62 -28 -97 -104 -76 -166 11 -29 8 -32 -76 -115 -48
-46 -94 -85 -103 -85 -18 0 -49 -28 -398 -349 -131 -122 -221 -212 -221 -223
0 -22 72 -98 92 -98 12 0 124 113 491 496 48 50 87 98 87 106 0 8 41 56 92
106 74 73 95 89 109 81 27 -14 87 -11 120 6 83 43 91 179 14 229 -35 23 -95
28 -131 12z m106 -21 c89 -46 79 -171 -16 -211 -29 -12 -40 -12 -76 1 l-43 14
-92 -91 c-51 -51 -96 -89 -100 -85 -4 4 35 50 87 102 89 90 93 95 82 120 -46
101 59 201 158 150z m-341 -388 l22 -24 -281 -291 c-155 -161 -284 -292 -288
-292 -13 0 -72 65 -72 79 0 10 10 6 30 -14 34 -33 41 -23 8 12 -26 28 -16 43
12 18 23 -21 27 -10 5 15 -13 15 11 40 258 268 149 138 275 252 278 252 3 0
15 -11 28 -23z"/>
<path d="M7752 1955 c-39 -17 -66 -72 -57 -116 4 -16 20 -40 37 -54 68 -57
168 -9 168 82 0 38 -25 72 -66 89 -40 17 -41 17 -82 -1z m87 -20 c33 -16 41
-33 41 -79 0 -38 -30 -72 -47 -55 -6 6 -21 9 -34 6 -22 -4 -22 -4 4 -6 29 -1
38 -20 10 -22 -53 -4 -99 22 -88 48 2 8 0 11 -5 8 -6 -4 -10 7 -10 24 0 16 5
33 10 36 6 4 7 12 4 18 -4 7 -4 9 0 5 4 -3 16 2 27 13 23 23 50 24 88 4z"/>
<path d="M565 1916 c-34 -15 -85 -70 -85 -92 0 -8 -4 -14 -10 -14 -5 0 -10 6
-10 14 0 8 -16 28 -35 45 -31 27 -43 31 -92 31 -51 0 -58 -3 -94 -39 l-39 -39
0 -141 0 -141 134 0 c109 0 135 -3 140 -15 8 -22 601 -22 613 0 7 11 38 15
143 17 l135 3 3 115 c3 137 -9 184 -58 218 -67 45 -175 19 -204 -49 l-13 -31
-10 28 c-25 69 -104 114 -177 100 -40 -8 -101 -56 -111 -87 -9 -27 -18 -24
-36 14 -18 37 -87 77 -134 77 -16 -1 -44 -7 -60 -14z m136 -23 c44 -26 69 -87
69 -166 l0 -67 -38 0 c-25 0 -43 7 -55 20 -11 13 -29 20 -52 20 -24 0 -39 -6
-47 -20 -9 -14 -24 -20 -50 -20 l-38 0 0 75 c0 88 16 127 63 155 40 25 109 26
148 3z m320 -10 c43 -36 59 -79 59 -158 l0 -65 -38 0 c-25 0 -43 7 -55 20 -11
13 -29 20 -52 20 -24 0 -37 -6 -45 -20 -8 -15 -21 -20 -50 -20 l-40 0 0 78 c0
42 6 88 13 102 36 70 147 94 208 43z m-623 -13 c42 -26 62 -73 62 -150 0 -59
0 -60 -28 -60 -15 0 -35 9 -45 20 -19 23 -76 27 -95 8 -15 -15 -15 -61 0 -76
16 -16 69 -15 94 2 11 8 31 16 44 17 23 4 25 0 28 -39 l3 -43 -123 3 -123 3 0
127 c0 113 2 130 21 155 41 55 104 68 162 33z m886 5 c56 -27 66 -57 66 -199
l0 -126 -120 0 -120 0 0 40 c0 37 2 40 29 40 16 0 34 -7 41 -15 15 -18 81 -20
98 -3 19 19 15 66 -7 78 -33 17 -80 12 -93 -10 -8 -12 -24 -20 -40 -20 -28 0
-28 0 -28 70 0 84 18 126 63 145 42 19 72 18 111 0z m-204 -296 l0 -49 -140 0
c-133 0 -140 1 -141 20 -5 79 -7 75 40 78 32 2 47 -1 53 -12 11 -20 84 -22 95
-2 11 17 30 23 65 18 26 -4 28 -7 28 -53z m-500 36 c7 -9 29 -15 52 -15 25 0
41 5 44 15 4 10 20 15 50 15 l44 0 0 -50 0 -50 -140 0 -140 0 0 50 0 50 39 0
c22 0 44 -6 51 -15z"/>
<path d="M4565 1916 c-34 -15 -85 -70 -85 -92 0 -8 -4 -14 -10 -14 -5 0 -10 6
-10 14 0 8 -16 28 -35 45 -31 27 -43 31 -92 31 -51 0 -58 -3 -94 -39 l-39 -39
0 -141 0 -141 134 0 c109 0 135 -3 140 -15 8 -22 601 -22 613 0 7 11 38 15
143 17 l135 3 3 115 c3 137 -9 184 -58 218 -67 45 -175 19 -204 -49 l-13 -31
-10 28 c-25 69 -104 114 -177 100 -40 -8 -101 -56 -111 -87 -9 -27 -18 -24
-36 14 -18 37 -87 77 -134 77 -16 -1 -44 -7 -60 -14z m136 -23 c44 -26 69 -87
69 -166 l0 -67 -38 0 c-25 0 -43 7 -55 20 -11 13 -29 20 -52 20 -24 0 -39 -6
-47 -20 -9 -14 -24 -20 -50 -20 l-38 0 0 75 c0 88 16 127 63 155 40 25 109 26
148 3z m320 -10 c43 -36 59 -79 59 -158 l0 -65 -38 0 c-25 0 -43 7 -55 20 -11
13 -29 20 -53 20 -27 0 -37 -5 -41 -20 -4 -16 -14 -20 -47 -20 -24 0 -45 2
-47 4 -2 3 -2 43 1 90 5 72 10 90 31 112 31 34 53 43 111 43 36 1 53 -5 79
-26z m-623 -13 c42 -26 62 -73 62 -150 0 -57 -1 -60 -25 -60 -14 0 -34 9 -45
20 -22 22 -79 27 -98 8 -15 -15 -15 -61 0 -76 16 -16 69 -15 94 2 11 8 31 16
44 17 23 4 25 0 28 -39 l3 -43 -123 3 -123 3 0 127 c0 113 2 130 21 155 41 55
104 68 162 33z m886 5 c56 -27 66 -57 66 -199 l0 -126 -120 0 -120 0 0 40 c0
37 2 40 29 40 16 0 34 -7 41 -15 15 -18 81 -20 98 -3 19 19 15 66 -7 78 -31
16 -69 12 -91 -10 -11 -11 -31 -20 -45 -20 -24 0 -25 2 -25 70 0 84 18 126 63
145 42 19 72 18 111 0z m-704 -260 c7 -9 29 -15 52 -15 25 0 41 5 44 15 4 10
20 15 50 15 l44 0 0 -50 0 -50 -140 0 -140 0 0 50 0 50 39 0 c22 0 44 -6 51
-15z m314 0 c3 -10 19 -15 46 -15 27 0 43 5 46 15 4 10 20 15 50 15 l44 0 0
-50 0 -50 -140 0 c-156 0 -150 -4 -141 88 2 18 87 16 95 -3z"/>
<path d="M1646 1702 c-2 -4 -7 -24 -11 -45 -6 -30 -12 -37 -30 -37 -16 0 -31
-14 -53 -47 l-30 -48 -16 -325 c-9 -179 -16 -360 -16 -403 l0 -77 200 0 200 0
0 43 c0 23 -9 205 -20 405 l-19 362 -31 45 c-17 25 -39 45 -52 47 -18 2 -25
12 -32 46 -9 40 -10 42 -47 42 -21 0 -40 -3 -43 -8z m152 -122 c12 -16 22 -33
22 -38 0 -6 -59 -10 -135 -10 -74 0 -135 3 -135 6 0 3 10 21 23 39 l22 33 91
0 c88 0 91 -1 112 -30z m29 -74 c3 -3 13 -149 22 -325 l16 -321 -32 0 c-45 0
-41 -18 5 -23 27 -3 22 -4 -20 -5 -32 -1 -58 -6 -58 -12 0 -5 26 -11 58 -13
31 -2 -25 -4 -125 -5 l-183 -2 0 43 c0 54 18 406 26 519 4 65 10 88 22 93 8 3
19 0 24 -7 6 -10 8 -10 8 -1 0 7 7 10 18 6 15 -5 15 -4 -2 9 -10 8 -29 13 -42
10 -14 -2 -24 0 -24 7 0 7 22 11 57 11 62 0 64 16 3 22 -19 3 23 3 94 2 71 -2
131 -5 133 -8z"/>
<path d="M1589 1355 c-5 0 -34 -411 -30 -417 3 -4 63 -8 134 -10 l128 -3 -5
40 c-3 22 -8 87 -11 145 -3 58 -8 137 -11 175 l-6 70 -99 0 c-54 0 -100 0
-100 0z m182 -37 c0 -7 6 -89 13 -183 7 -93 11 -173 9 -177 -2 -5 -52 -8 -110
-8 l-106 0 7 113 c4 61 9 147 13 190 l6 77 83 0 c60 0 84 -4 85 -12z"/>
<path d="M5646 1702 c-2 -4 -7 -24 -11 -45 -6 -30 -12 -37 -30 -37 -16 0 -31
-14 -53 -47 -30 -48 -30 -48 -42 -273 -6 -124 -14 -305 -17 -402 l-6 -178 201
0 202 0 0 43 c0 23 -9 205 -20 405 l-19 362 -31 45 c-17 25 -39 45 -52 47 -18
2 -25 12 -32 46 -9 40 -10 42 -47 42 -21 0 -40 -3 -43 -8z m152 -122 c12 -16
22 -33 22 -38 0 -6 -59 -10 -135 -10 -74 0 -135 3 -135 6 0 3 10 21 23 39 l22
33 91 0 c88 0 91 -1 112 -30z m29 -74 c3 -3 13 -149 22 -325 l16 -321 -32 0
c-45 0 -41 -18 5 -23 27 -3 22 -4 -20 -5 -32 -1 -58 -6 -58 -12 0 -5 26 -11
58 -13 31 -2 -25 -4 -125 -5 l-183 -2 0 43 c0 54 18 406 26 519 4 65 10 88 22
93 8 3 19 0 24 -7 5 -9 8 -9 8 -1 0 6 10 9 23 7 l22 -5 -22 10 c-33 15 -28 31
9 31 42 0 25 17 -22 22 -19 3 23 3 94 2 71 -2 131 -5 133 -8z"/>
<path d="M5589 1355 c-5 0 -34 -411 -30 -417 3 -4 63 -8 134 -10 l128 -3 -5
40 c-3 22 -8 87 -11 145 -3 58 -8 137 -11 175 l-6 70 -99 0 c-54 0 -100 0
-100 0z m185 -77 c11 -106 23 -313 19 -320 -2 -5 -52 -8 -110 -8 l-106 0 7
113 c4 61 9 147 13 190 l6 77 83 0 83 0 5 -52z"/>
<path d="M0 1420 c0 -5 6 -10 13 -10 8 0 7 -4 -3 -10 -12 -8 -10 -10 10 -10
l25 -1 -25 -12 c-24 -11 -24 -11 12 -15 37 -3 38 -4 38 -43 0 -44 -17 -53 -22
-11 -2 19 -9 28 -25 30 -13 2 -23 -1 -23 -7 0 -6 7 -11 15 -11 21 0 19 -37 -3
-49 -14 -9 -14 -12 -3 -20 11 -7 11 -9 0 -14 -8 -3 10 -6 39 -6 116 -2 212
-99 212 -215 0 -42 -42 -128 -74 -154 -41 -31 -110 -55 -150 -50 -20 2 -36 1
-36 -3 0 -5 24 -10 53 -12 l52 -3 -52 -2 c-29 -1 -53 -6 -53 -12 0 -5 7 -10
15 -10 12 0 15 -14 15 -70 0 -56 -3 -70 -15 -70 -17 0 -20 -16 -6 -24 5 -4 16
-3 25 0 13 5 16 22 16 79 0 41 5 77 11 80 7 5 9 -29 8 -107 -2 -119 -5 -138
-21 -138 -5 0 -6 5 -2 12 4 7 3 8 -5 4 -6 -4 -8 -12 -5 -18 4 -6 -1 -8 -15 -3
-15 5 -21 2 -21 -9 0 -25 38 -19 66 9 24 24 25 29 23 142 l-1 117 33 9 c86 22
164 118 176 215 12 104 -52 212 -152 253 l-55 23 0 52 c0 35 -6 58 -17 72 -20
22 -73 38 -73 22z"/>
<path d="M3614 1422 c-43 -8 -44 -15 -44 -462 0 -352 2 -430 14 -446 13 -18
30 -19 235 -22 l221 -3 25 25 c24 24 25 30 25 144 l0 120 31 6 c81 16 164 117
176 214 12 104 -52 212 -152 253 l-55 23 0 52 c0 35 -6 59 -18 74 -18 22 -23
23 -228 24 -116 0 -219 -1 -230 -2z m346 -22 c-18 -11 15 -20 53 -14 31 4 31
4 7 -8 -25 -12 -25 -12 13 -16 36 -3 37 -4 37 -43 0 -44 -17 -53 -22 -11 l-3
27 -218 0 -218 0 -2 -365 -2 -365 95 2 c52 1 89 0 83 -3 -7 -3 -13 -23 -13
-45 l0 -40 57 3 c52 3 58 5 63 28 5 18 1 30 -14 43 -21 18 -19 19 64 17 47 -1
91 -2 98 -1 8 1 12 23 12 75 0 41 5 78 10 81 17 10 10 -223 -6 -240 -10 -9
-61 -13 -190 -14 -152 -2 -176 0 -171 13 3 8 -2 20 -11 28 -11 9 -14 10 -8 1
5 -10 -5 -13 -41 -12 -44 2 -45 2 -14 8 47 8 52 28 6 23 l-35 -4 0 410 c0 381
1 412 18 422 10 6 84 9 190 8 95 0 168 -4 162 -8z m70 -100 c0 -11 -6 -22 -12
-24 -104 -30 -175 -86 -204 -162 -20 -53 -16 -154 9 -203 22 -44 22 -44 -8
-79 -14 -17 -22 -33 -18 -35 5 -2 33 -1 63 3 38 5 63 4 80 -5 14 -7 40 -16 58
-20 l32 -7 0 -69 0 -69 -200 0 -200 0 0 345 0 345 200 0 c194 0 200 -1 200
-20z m108 -89 c72 -37 122 -117 122 -195 0 -34 -32 -110 -58 -140 -24 -27
-111 -66 -147 -66 -82 0 -158 48 -197 123 -30 60 -22 152 17 209 58 82 177
113 263 69z"/>
<path d="M3945 1165 c-29 -28 -31 -57 -11 -129 8 -28 23 -82 33 -121 14 -56
22 -70 37 -70 14 0 23 12 34 43 16 48 24 46 42 -10 23 -73 52 -43 83 87 32
134 33 173 6 201 -24 26 -76 33 -96 13 -8 -8 -17 -8 -31 0 -34 18 -71 13 -97
-14z m84 4 c23 -8 39 -8 59 0 39 16 79 0 88 -36 4 -15 1 -47 -5 -72 -7 -25
-19 -74 -26 -108 -8 -34 -19 -72 -26 -84 -11 -22 -12 -22 -28 19 -28 70 -37
72 -64 11 l-25 -54 -11 30 c-7 16 -18 59 -26 95 -8 36 -19 78 -24 93 -17 43
-13 66 14 92 28 28 31 29 74 14z"/>
<path d="M7614 1422 c-43 -8 -44 -15 -44 -462 0 -352 2 -430 14 -446 13 -17
30 -19 215 -22 137 -2 201 0 201 7 0 7 -53 11 -156 11 -131 0 -155 2 -151 14
3 8 -2 20 -11 28 -11 9 -14 10 -8 1 5 -10 -5 -13 -41 -12 -33 2 -39 3 -18 6
46 7 55 23 12 23 l-37 0 0 410 c0 394 1 410 19 420 33 17 294 13 341 -6 40
-16 68 -12 40 6 -13 8 -13 10 -1 10 8 0 12 3 8 6 -6 7 -349 11 -383 6z"/>
<path d="M577 1312 c-61 -61 -88 -95 -85 -108 5 -29 37 -29 67 0 l27 26 29
-30 29 -30 -37 -38 c-39 -39 -47 -69 -23 -78 8 -3 24 0 37 6 20 11 38 -4 263
-229 133 -133 247 -241 254 -241 7 0 24 7 38 16 23 16 26 16 48 -5 12 -11 29
-21 36 -21 8 0 65 -50 126 -111 102 -100 134 -121 134 -86 0 7 -47 59 -105
117 -58 58 -103 109 -101 115 2 5 -8 25 -21 43 -24 31 -24 34 -8 52 9 10 15
26 13 34 -1 9 -112 125 -244 259 -234 235 -241 243 -227 264 18 27 11 53 -14
53 -9 0 -34 -17 -55 -37 l-38 -37 -30 29 -30 29 26 27 c29 31 29 63 -1 67 -14
2 -47 -25 -108 -86z m346 -254 c-32 -33 -20 -38 14 -6 22 21 24 21 40 5 16
-16 15 -19 -15 -50 -45 -47 -40 -59 6 -14 l38 38 20 -23 c15 -18 15 -20 2 -9
-16 12 -25 6 -85 -53 l-68 -65 132 -133 133 -133 70 70 c38 38 70 65 70 59 0
-5 -31 -41 -70 -79 l-70 -69 -246 245 -246 246 73 76 74 76 77 -77 78 -76 -27
-28z m78 -97 c-14 -13 -18 -22 -11 -26 6 -4 20 1 31 11 19 17 20 17 37 -1 9
-10 11 -15 5 -11 -8 4 -13 1 -13 -7 0 -8 -9 -22 -20 -32 -11 -10 -20 -22 -20
-26 0 -11 37 -6 47 6 5 4 2 5 -6 0 -9 -5 -12 -4 -7 3 4 7 17 12 29 12 16 0 18
3 8 9 -8 5 -9 11 -3 15 13 8 36 -20 27 -34 -3 -6 -12 -7 -18 -4 -7 4 -9 4 -5
-1 4 -4 3 -17 -3 -27 -6 -11 -7 -23 -2 -27 4 -3 7 -4 5 -2 -1 3 7 15 19 27 18
19 24 21 40 11 11 -7 19 -15 19 -20 0 -4 -4 -5 -10 -2 -5 3 -10 0 -10 -7 0 -7
-9 -19 -20 -26 -23 -14 -26 -32 -6 -32 8 0 24 14 36 30 12 17 26 28 31 24 5
-3 7 -10 3 -15 -3 -5 -2 -9 3 -8 23 4 25 -3 5 -17 -31 -22 -28 -41 8 -41 25 0
27 2 13 12 -11 8 -13 14 -5 19 7 4 17 4 22 1 21 -13 8 -43 -40 -90 l-50 -49
-33 32 c-21 22 -28 35 -21 40 8 5 7 11 -4 22 -14 13 -15 12 -9 -4 12 -31 -15
-12 -34 24 -11 20 -15 38 -10 44 6 7 -1 11 -20 12 -28 1 -29 1 -9 -13 11 -8
20 -19 20 -25 0 -7 -22 11 -50 38 -50 49 -69 83 -27 48 12 -10 17 -12 10 -5
-6 7 -9 21 -6 30 3 9 1 12 -4 6 -4 -5 -17 -12 -27 -13 -18 -3 -18 -2 -6 15 21
27 104 101 109 97 2 -2 -6 -12 -18 -23z"/>
<path d="M4577 1312 c-61 -61 -88 -95 -85 -108 5 -29 37 -29 67 0 l27 26 29
-30 29 -30 -37 -38 c-39 -39 -47 -69 -23 -78 8 -3 24 0 37 6 20 11 38 -4 263
-229 133 -133 247 -241 254 -241 7 0 24 7 38 16 23 16 26 16 48 -5 12 -11 29
-21 36 -21 8 0 65 -50 126 -111 102 -100 134 -121 134 -86 0 7 -47 59 -105
117 -58 58 -103 109 -101 115 2 5 -8 25 -21 43 -24 31 -24 34 -8 52 9 10 15
26 13 34 -1 9 -112 125 -244 259 -234 235 -241 243 -227 264 18 27 11 53 -14
53 -9 0 -34 -17 -55 -37 l-38 -37 -30 29 -30 29 26 27 c29 31 29 63 -1 67 -14
2 -47 -25 -108 -86z m346 -254 c-32 -33 -20 -38 14 -6 22 21 24 21 40 5 16
-16 15 -19 -15 -50 -45 -47 -40 -59 6 -14 l38 38 20 -23 c15 -18 15 -20 2 -9
-16 12 -25 6 -85 -53 l-68 -65 132 -133 133 -133 70 70 c38 38 70 65 70 59 0
-5 -31 -41 -70 -79 l-70 -69 -246 245 -246 246 73 76 74 76 77 -76 78 -77 -27
-28z m78 -97 c-14 -13 -18 -22 -11 -26 6 -4 20 1 30 10 16 15 22 16 35 5 14
-12 12 -17 -16 -46 -31 -32 -35 -60 -6 -35 12 9 14 6 12 -14 -2 -14 0 -23 5
-20 4 2 6 16 5 29 -2 14 5 32 14 40 16 15 19 14 37 -6 10 -12 14 -18 8 -15 -7
4 -15 0 -18 -9 -3 -8 -10 -13 -15 -10 -5 3 -7 -3 -4 -13 3 -11 12 -22 20 -25
8 -3 11 -1 8 5 -4 5 -1 16 5 24 9 11 16 12 31 2 10 -6 19 -15 19 -20 0 -4 -4
-5 -10 -2 -5 3 -10 -1 -10 -9 0 -8 -5 -18 -12 -22 -7 -5 -9 -2 -4 7 4 8 0 5
-8 -5 -20 -25 -20 -36 -2 -36 8 0 24 14 36 30 12 17 26 28 31 24 5 -3 6 -10 3
-16 -4 -6 -2 -8 4 -4 6 3 13 2 17 -3 3 -6 -4 -15 -15 -21 -30 -16 -25 -37 10
-37 25 0 27 2 13 12 -11 8 -13 14 -5 19 7 4 17 4 22 1 21 -13 8 -43 -40 -90
l-50 -49 -33 33 c-21 22 -28 35 -19 38 13 5 7 23 -9 23 -6 0 -7 -4 -4 -10 14
-22 -12 -7 -45 26 -29 29 -33 36 -20 45 12 9 11 10 -4 5 -19 -7 -64 29 -52 41
11 12 -25 42 -42 35 -15 -5 -15 -4 -2 14 23 30 104 104 109 99 2 -3 -6 -13
-18 -24z"/>
<path d="M7610 1338 c0 -2 -1 -167 -3 -368 l-2 -365 95 2 c52 1 89 0 83 -3 -7
-3 -13 -23 -13 -45 l0 -40 58 3 57 3 0 35 c0 31 -4 36 -30 41 -18 4 4 7 58 8
50 1 87 5 87 11 0 6 -68 10 -185 10 l-185 0 0 345 0 345 185 0 c117 0 185 4
185 10 0 8 -390 16 -390 8z"/>
<path d="M7945 1251 c-54 -25 -111 -84 -131 -137 -20 -53 -16 -154 9 -203 22
-44 22 -44 -8 -79 -14 -17 -22 -32 -18 -35 5 -2 34 -1 65 2 39 5 65 3 80 -6
34 -18 58 -16 58 6 0 12 -9 21 -25 25 -36 9 -93 63 -117 109 -16 32 -19 54
-16 103 5 80 42 137 111 173 34 17 44 27 35 32 -10 7 -10 9 0 9 6 0 12 5 12
10 0 14 -9 12 -55 -9z"/>
<path d="M2643 1040 c-7 -25 -29 -26 -42 -3 -15 27 -66 6 -66 -27 0 -21 -4
-25 -28 -23 -20 1 -32 -5 -44 -24 -16 -24 -16 -26 1 -35 16 -9 13 -13 -24 -29
-51 -23 -64 -23 -94 -4 -33 22 -123 22 -163 1 -76 -39 -97 -155 -50 -276 14
-36 30 -99 36 -140 17 -107 39 -186 67 -242 20 -39 30 -49 46 -46 17 2 28 22
54 92 18 49 38 94 43 99 11 11 38 -42 76 -146 14 -39 21 -48 39 -45 34 5 71
97 104 258 36 175 53 220 85 220 33 0 49 15 45 41 -3 22 0 24 30 21 26 -2 35
3 44 23 9 19 9 28 0 37 -18 18 -14 35 8 41 28 7 29 67 1 67 -28 0 -36 18 -20
46 11 22 10 27 -9 46 -17 18 -24 19 -36 9 -19 -16 -36 -6 -36 20 0 12 -10 23
-26 29 -34 13 -35 13 -41 -10z m70 -110 c37 -41 37 -96 1 -139 -14 -17 -30
-31 -35 -31 -4 0 -13 17 -19 39 -14 52 -43 87 -85 102 -19 7 -35 17 -35 21 0
5 15 17 33 29 46 29 103 20 140 -21z m-367 -50 l44 -20 40 20 c81 41 176 15
207 -57 25 -60 18 -132 -20 -223 -8 -19 -22 -82 -32 -140 -25 -151 -73 -273
-99 -251 -7 6 -23 41 -36 78 -13 37 -32 81 -43 96 -29 42 -37 31 -97 -126 -12
-31 -26 -57 -31 -57 -25 0 -69 129 -98 291 -10 58 -27 121 -36 140 -10 18 -20
61 -23 94 -5 72 20 135 66 159 38 21 106 19 158 -4z"/>
<path d="M6643 1040 c-7 -25 -29 -26 -42 -3 -15 27 -66 6 -66 -27 0 -21 -4
-25 -28 -23 -20 1 -32 -5 -44 -24 -16 -24 -16 -26 1 -35 16 -9 13 -13 -24 -29
-51 -23 -64 -23 -94 -4 -33 22 -123 22 -163 1 -76 -39 -97 -155 -50 -276 14
-36 30 -100 37 -142 14 -97 41 -191 69 -246 17 -33 27 -43 43 -40 17 2 28 22
54 92 18 49 38 94 43 99 11 11 38 -42 76 -146 14 -39 21 -48 39 -45 34 5 72
98 105 259 34 172 52 219 84 219 33 0 49 15 45 41 -3 22 0 24 30 21 26 -2 35
3 44 23 9 19 9 28 0 37 -18 18 -14 35 8 41 28 7 29 67 1 67 -28 0 -36 18 -20
46 11 22 10 27 -9 46 -17 18 -24 19 -36 9 -19 -16 -36 -6 -36 20 0 12 -10 23
-26 29 -34 13 -35 13 -41 -10z m70 -110 c37 -41 37 -96 1 -139 -14 -17 -30
-31 -35 -31 -4 0 -13 17 -19 39 -14 52 -43 87 -85 102 -19 7 -35 17 -35 21 0
5 15 17 33 29 46 29 103 20 140 -21z m-367 -50 l44 -20 40 20 c81 42 176 15
207 -58 19 -46 13 -153 -11 -201 -10 -19 -27 -84 -37 -145 -20 -116 -61 -247
-83 -266 -18 -14 -29 1 -57 80 -12 36 -31 78 -42 93 -29 42 -37 31 -97 -126
-12 -31 -26 -57 -31 -57 -25 0 -69 129 -98 291 -10 58 -27 121 -36 140 -10 18
-20 61 -23 94 -5 72 20 135 66 159 38 21 106 19 158 -4z"/>
<path d="M2829 708 c-10 -18 -12 -18 -27 -5 -21 19 -52 5 -52 -23 0 -13 -7
-20 -20 -20 -26 0 -41 -29 -26 -52 9 -15 8 -21 -6 -29 -20 -11 -10 -54 13 -54
9 0 13 -10 11 -26 -3 -35 22 -57 44 -39 13 11 16 10 21 -8 7 -30 41 -39 58
-15 10 14 16 15 26 6 18 -18 59 4 56 31 -1 14 4 21 17 21 23 0 47 35 29 42
-18 6 -16 24 3 38 14 9 14 16 5 34 -7 12 -16 19 -21 16 -14 -9 -23 15 -11 29
8 10 6 18 -9 31 -16 15 -22 16 -35 5 -14 -11 -17 -10 -21 7 -8 30 -42 36 -55
11z m66 -79 c40 -39 16 -119 -40 -133 -91 -23 -137 113 -51 150 35 15 62 10
91 -17z"/>
<path d="M6829 708 c-10 -18 -12 -18 -27 -5 -21 19 -52 5 -52 -23 0 -13 -7
-20 -20 -20 -26 0 -41 -29 -26 -52 9 -15 8 -21 -6 -29 -20 -11 -10 -54 13 -54
9 0 13 -10 11 -26 -3 -35 22 -57 44 -39 13 11 16 10 21 -8 7 -30 41 -39 58
-15 10 14 16 15 26 6 18 -18 59 4 56 31 -1 14 4 21 17 21 23 0 47 35 29 42
-18 6 -16 24 3 38 14 9 14 16 5 34 -7 12 -16 19 -21 16 -14 -9 -23 15 -11 29
8 10 6 18 -9 31 -16 15 -22 16 -35 5 -14 -11 -17 -10 -21 7 -8 30 -42 36 -55
11z m66 -79 c40 -39 16 -119 -40 -133 -91 -23 -137 113 -51 150 35 15 62 10
91 -17z"/>
<path d="M387 569 c-48 -25 -87 -102 -87 -171 0 -44 62 -257 83 -286 5 -6 29
-12 53 -12 l44 0 0 -38 c0 -21 -5 -43 -12 -50 -9 -9 -6 -12 14 -12 22 0 167
27 246 45 20 5 22 3 16 -20 -3 -14 -2 -25 4 -25 10 0 26 55 24 83 -1 13 6 17
36 17 52 0 60 8 81 81 11 35 27 84 36 109 26 69 24 157 -6 210 -34 61 -68 83
-137 88 -45 3 -70 -1 -111 -19 l-53 -22 -44 21 c-57 28 -135 28 -187 1z m196
-20 c37 -20 38 -20 82 0 75 33 123 35 175 9 85 -43 112 -149 69 -266 -12 -31
-28 -83 -37 -114 l-15 -58 -58 0 -59 0 0 61 c0 95 -4 99 -114 99 -64 0 -97 -4
-104 -13 -6 -7 -12 -42 -14 -77 l-3 -65 -60 0 -60 0 -11 50 c-7 28 -19 67 -28
87 -9 21 -21 60 -27 88 -20 93 30 196 107 220 39 12 110 2 157 -21z m135 -359
c2 -42 9 -71 19 -83 10 -10 13 -21 7 -26 -9 -8 -235 -54 -239 -49 -1 2 -5 17
-8 34 -4 23 -1 35 14 47 15 13 19 30 19 82 l0 66 93 -3 92 -3 3 -65z"/>
<path d="M4387 569 c-28 -15 -45 -34 -63 -72 -32 -70 -31 -127 7 -245 47 -147
47 -146 102 -150 l47 -3 0 -38 c0 -20 -5 -42 -12 -49 -9 -9 -6 -12 14 -12 22
0 167 27 246 45 20 5 22 3 16 -20 -3 -14 -2 -25 4 -25 10 0 26 55 24 83 -1 13
6 17 36 17 52 0 60 8 81 81 11 35 27 84 36 109 26 69 24 157 -6 210 -34 61
-68 83 -137 88 -45 3 -70 -1 -111 -19 l-53 -22 -44 21 c-57 28 -135 28 -187 1z
m195 -20 c38 -19 38 -19 91 3 179 78 308 -65 236 -260 -12 -31 -28 -83 -37
-114 l-15 -58 -58 0 -59 0 0 61 c0 95 -4 99 -114 99 -64 0 -97 -4 -104 -13 -6
-7 -12 -42 -14 -77 l-3 -65 -60 0 -60 0 -11 50 c-7 28 -19 67 -28 87 -9 21
-21 60 -27 88 -20 93 30 196 107 220 39 12 110 2 156 -21z m136 -359 c2 -43 9
-71 20 -83 22 -25 11 -31 -97 -51 -47 -9 -98 -19 -112 -22 -23 -4 -27 -1 -33
27 -5 25 -2 37 14 51 16 15 20 32 20 84 l0 65 93 -3 92 -3 3 -65z"/>
<path d="M1695 550 c-3 -5 4 -28 16 -52 12 -23 17 -44 12 -45 -41 -14 -56 -52
-40 -99 7 -19 -11 -35 -157 -137 -147 -103 -169 -115 -198 -111 -29 5 -40 -1
-91 -46 -32 -29 -56 -55 -53 -58 3 -2 32 18 64 47 33 28 64 51 69 51 6 0 31
-22 57 -50 50 -54 58 -59 54 -34 -2 12 45 51 152 126 120 85 159 108 177 103
15 -3 44 5 83 25 55 28 60 33 59 63 0 42 -37 115 -70 140 -21 15 -31 17 -46 9
-17 -10 -22 -5 -41 34 -21 43 -35 53 -47 34z m144 -106 c32 -40 55 -109 43
-130 -8 -15 -14 -11 -36 32 -26 47 -26 44 -4 -19 6 -15 7 -31 3 -35 -4 -4 -10
-2 -12 4 -2 6 -11 20 -19 30 -15 18 -15 18 -9 -1 18 -51 17 -53 -14 -60 -40
-9 -49 -2 -77 59 -36 78 -33 93 29 121 65 31 71 31 96 -1z m-119 -170 c0 -7
-30 -34 -67 -61 -125 -91 -231 -163 -240 -163 -6 0 -18 9 -27 19 -17 18 -11
23 146 134 144 101 164 113 176 99 6 -9 12 -21 12 -28z"/>
<path d="M5695 550 c-3 -5 4 -28 16 -52 12 -23 17 -44 12 -45 -41 -14 -56 -52
-40 -99 7 -19 -11 -35 -157 -137 -147 -103 -169 -115 -198 -111 -29 5 -40 -1
-91 -46 -32 -29 -56 -55 -53 -58 3 -2 32 18 64 47 33 28 64 51 69 51 6 0 31
-22 57 -50 50 -54 58 -59 54 -34 -2 12 45 51 152 126 120 85 159 108 177 103
15 -3 44 5 83 25 55 28 60 33 59 63 0 42 -37 115 -70 140 -21 15 -31 17 -46 9
-17 -10 -22 -5 -41 34 -21 43 -35 53 -47 34z m144 -106 c32 -40 55 -109 43
-130 -8 -15 -13 -11 -35 32 -15 27 -26 45 -27 41 0 -4 9 -25 20 -47 15 -29 17
-41 8 -46 -6 -4 -13 -3 -15 3 -2 6 -11 19 -19 29 -15 18 -15 18 -9 -1 18 -51
17 -53 -14 -60 -39 -8 -46 -3 -76 55 -39 77 -35 96 28 125 65 31 71 31 96 -1z
m-125 -160 c6 -18 -5 -30 -61 -71 -125 -91 -231 -163 -240 -163 -6 0 -18 9
-27 19 -17 18 -11 23 146 134 90 63 166 112 169 108 4 -3 10 -16 13 -27z"/>
<path d="M3250 472 c-44 -43 -70 -118 -70 -197 l0 -52 -47 23 c-146 75 -326
-39 -322 -203 l1 -48 9 57 c8 58 30 111 49 123 6 4 50 -34 98 -82 48 -49 71
-71 52 -49 -19 23 -59 67 -90 98 -30 32 -49 58 -43 58 6 0 53 -45 104 -100 51
-55 95 -98 97 -95 3 3 -36 47 -86 99 -51 53 -92 100 -92 105 0 14 48 38 93 46
51 10 127 -11 169 -45 45 -37 78 -107 78 -165 0 -61 17 -58 22 4 1 27 0 47 -4
44 -5 -2 -8 4 -8 14 0 11 -5 24 -12 31 -6 6 -8 15 -4 19 4 5 15 -1 23 -12 13
-16 15 -17 10 -3 -6 16 3 18 93 18 l100 0 0 -80 c0 -47 4 -80 10 -80 6 0 10
61 10 163 0 196 -13 252 -70 309 -33 33 -44 38 -85 38 -41 0 -52 -5 -85 -38z
m141 11 c50 -30 77 -102 81 -213 l3 -95 -130 0 c-115 0 -130 2 -129 17 1 10
-4 14 -12 11 -11 -4 -14 8 -14 52 0 179 97 289 201 228z"/>
<path d="M7250 472 c-44 -43 -70 -118 -70 -197 l0 -52 -47 23 c-146 75 -326
-39 -322 -203 l1 -48 9 57 c8 58 30 111 49 123 6 4 50 -34 98 -82 48 -49 71
-71 52 -49 -19 23 -59 67 -90 98 -30 32 -49 58 -43 58 6 0 53 -45 104 -100 51
-55 95 -98 97 -95 3 3 -36 47 -86 99 -51 53 -92 100 -92 105 0 14 48 38 93 46
51 10 127 -11 169 -45 45 -37 78 -107 78 -165 0 -61 17 -58 22 4 1 27 0 47 -4
44 -5 -2 -8 4 -8 14 0 11 -5 24 -12 31 -6 6 -8 15 -4 19 4 5 15 -1 23 -12 13
-16 15 -17 10 -3 -6 16 3 18 93 18 l100 0 0 -80 c0 -47 4 -80 10 -80 6 0 10
61 10 163 0 196 -13 252 -70 309 -33 33 -44 38 -85 38 -41 0 -52 -5 -85 -38z
m141 11 c50 -30 77 -102 81 -213 l3 -95 -130 0 -130 0 2 25 c1 14 -1 19 -3 13
-12 -28 -24 -10 -24 36 0 185 95 296 201 234z"/>
</g>
</svg>
